<svg id="signup-bg" xmlns="http://www.w3.org/2000/svg" version="1.1" xmlns:xlink="http://www.w3.org/1999/xlink" xmlns:svgjs="http://svgjs.com/svgjs" width="383" height="129"><defs id="SvgjsDefs1001"></defs><path id="SvgjsPath1007" d="M381.61 667.49L1.25 667.49C0.56 667.49 0 666.9300000000001 0 666.25C0 665.56 0.56 665 1.25 665L381.61 665C382.3 665 382.86 665.56 382.86 666.25C382.86 666.93 382.3 667.49 381.61 667.49 " fill="#d1d9e2" fill-opacity="1" transform="matrix(1,0,0,1,0,-540)"></path><path id="SvgjsPath1008" d="M131.54 547.05C130.85 547.05 130.29 546.5 130.29 545.81L130.29 544.77L129.25 544.77C128.56 544.77 128 544.22 128 543.53C128 542.8399999999999 128.56 542.28 129.25 542.28L130.29 542.28L130.29 541.25C130.29 540.56 130.85 540 131.54 540C132.23 540 132.79 540.56 132.79 541.25L132.79 542.28L133.82999999999998 542.28C134.52999999999997 542.28 135.08999999999997 542.8399999999999 135.08999999999997 543.53C135.08999999999997 544.22 134.52999999999997 544.77 133.82999999999998 544.77L132.79 544.77L132.79 545.81C132.79 546.5 132.23 547.05 131.54 547.05 " fill="#d1d9e2" fill-opacity="1" transform="matrix(1,0,0,1,0,-540)"></path><path id="SvgjsPath1009" d="M322.25 613.64C321.56 613.64 321 613.08 321 612.39L321 609.25C321 608.56 321.56 608 322.25 608L338.88 608C339.57 608 340.14 608.56 340.14 609.25L340.14 612.39C340.14 613.08 339.57 613.64 338.88 613.64ZM323.5 611.15L337.63 611.15L337.63 610.49L323.5 610.49Z " fill="#d1d9e2" fill-opacity="1" transform="matrix(1,0,0,1,0,-540)"></path><path id="SvgjsPath1010" d="M319.25 611.07C318.56 611.07 318 610.5100000000001 318 609.82L318 591.25C318 590.56 318.56 590 319.25 590L341.33 590C342.02 590 342.58 590.56 342.58 591.25L342.58 609.82C342.58 610.5100000000001 342.02 611.07 341.33 611.07ZM320.5 608.57L340.08 608.57L340.08 592.49L320.5 592.49Z " fill="#d1d9e2" fill-opacity="1" transform="matrix(1,0,0,1,0,-540)"></path><path id="SvgjsPath1011" d="M315.25 641.09C314.56 641.09 314 640.5300000000001 314 639.84L314 616.25C314 615.56 314.56 615 315.25 615L346.11 615C346.8 615 347.36 615.56 347.36 616.25L347.36 639.84C347.36 640.5300000000001 346.8 641.09 346.11 641.09ZM316.5 638.6L344.86 638.6L344.86 617.49L316.5 617.49Z " fill="#d1d9e2" fill-opacity="1" transform="matrix(1,0,0,1,0,-540)"></path><path id="SvgjsPath1012" d="M315.25 617C314.77 617 314.34 616.73 314.13 616.3C313.92 615.87 313.96999999999997 615.3599999999999 314.27 614.99L317.03 611.48C317.26 611.1800000000001 317.63 611 318.01 611L343.34999999999997 611C343.73999999999995 611 344.09999999999997 611.18 344.34 611.48L347.09999999999997 614.99C347.39 615.36 347.43999999999994 615.87 347.22999999999996 616.3C347.03 616.7299999999999 346.59 617 346.10999999999996 617ZM343.54 614.51L342.74 613.49L318.62 613.49L317.82 614.51Z " fill="#d1d9e2" fill-opacity="1" transform="matrix(1,0,0,1,0,-540)"></path><path id="SvgjsPath1013" d="M347.75 617.49L314.25 617.49C313.56 617.49 313 616.9300000000001 313 616.25C313 615.56 313.56 615 314.25 615L347.75 615C348.44 615 349 615.56 349 616.25C349 616.93 348.44 617.49 347.75 617.49 " fill="#d1d9e2" fill-opacity="1" transform="matrix(1,0,0,1,0,-540)"></path><path id="SvgjsPath1014" d="M304.25 668.09C303.56 668.09 303 667.5300000000001 303 666.84L303 643.25C303 642.56 303.56 642 304.25 642L358.07 642C358.76 642 359.32 642.56 359.32 643.25L359.32 666.84C359.32 667.5300000000001 358.76 668.09 358.07 668.09ZM305.5 665.6L356.82 665.6L356.82 644.49L305.5 644.49Z " fill="#d1d9e2" fill-opacity="1" transform="matrix(1,0,0,1,0,-540)"></path><path id="SvgjsPath1015" d="M304.25 644C303.77 644 303.34 643.73 303.13 643.3C302.92 642.87 302.96999999999997 642.3599999999999 303.27 641.99L306.03 638.48C306.26 638.1800000000001 306.63 638 307.01 638L355.31 638C355.69 638 356.06 638.18 356.29 638.48L359.05 641.99C359.35 642.36 359.40000000000003 642.87 359.19 643.3C358.98 643.7299999999999 358.55 644 358.07 644ZM355.5 641.51L354.7 640.49L307.62 640.49L306.82 641.51Z " fill="#d1d9e2" fill-opacity="1" transform="matrix(1,0,0,1,0,-540)"></path><path id="SvgjsPath1016" d="M358.7 644.49L302.25 644.49C301.56 644.49 301 643.9300000000001 301 643.25C301 642.56 301.56 642 302.25 642L358.7 642C359.39 642 359.95 642.56 359.95 643.25C359.95 643.93 359.39 644.49 358.7 644.49 " fill="#d1d9e2" fill-opacity="1" transform="matrix(1,0,0,1,0,-540)"></path><path id="SvgjsPath1017" d="M304.25 644C303.77 644 303.34 643.73 303.13 643.3C302.92 642.87 302.96999999999997 642.3599999999999 303.27 641.99L306.03 638.48C306.26 638.1800000000001 306.63 638 307.01 638L355.31 638C355.69 638 356.06 638.18 356.29 638.48L359.05 641.99C359.35 642.36 359.40000000000003 642.87 359.19 643.3C358.98 643.7299999999999 358.55 644 358.07 644ZM355.5 641.51L354.7 640.49L307.62 640.49L306.82 641.51Z " fill="#d1d9e2" fill-opacity="1" transform="matrix(1,0,0,1,0,-540)"></path><path id="SvgjsPath1018" d="M358.7 644.49L302.25 644.49C301.56 644.49 301 643.9300000000001 301 643.25C301 642.56 301.56 642 302.25 642L358.7 642C359.39 642 359.95 642.56 359.95 643.25C359.95 643.93 359.39 644.49 358.7 644.49 " fill="#d1d9e2" fill-opacity="1" transform="matrix(1,0,0,1,0,-540)"></path><path id="SvgjsPath1019" d="M343.11 610.49L318.25 610.49C317.56 610.49 317 609.9300000000001 317 609.25C317 608.56 317.56 608 318.25 608L343.11 608C343.8 608 344.36 608.56 344.36 609.25C344.36 609.93 343.8 610.49 343.11 610.49 " fill="#d1d9e2" fill-opacity="1" transform="matrix(1,0,0,1,0,-540)"></path><path id="SvgjsPath1020" d="M343.11 592.49L318.25 592.49C317.56 592.49 317 591.9300000000001 317 591.25C317 590.56 317.56 590 318.25 590L343.11 590C343.8 590 344.36 590.56 344.36 591.25C344.36 591.93 343.8 592.49 343.11 592.49 " fill="#d1d9e2" fill-opacity="1" transform="matrix(1,0,0,1,0,-540)"></path><path id="SvgjsPath1021" d="M323 600.38C323 596.31 326.33 593 330.42 593C334.51 593 337.83000000000004 596.31 337.83000000000004 600.38C337.83000000000004 604.45 334.51000000000005 607.77 330.42 607.77C326.33000000000004 607.77 323 604.4499999999999 323 600.38ZM325.5 600.38C325.5 603.08 327.71 605.28 330.42 605.28C333.13 605.28 335.33000000000004 603.0799999999999 335.33000000000004 600.38C335.33000000000004 597.6899999999999 333.13000000000005 595.49 330.42 595.49C327.71000000000004 595.49 325.5 597.69 325.5 600.38Z " fill="#d1d9e2" fill-opacity="1" transform="matrix(1,0,0,1,0,-540)"></path><path id="SvgjsPath1022" d="M334.77 601.26L331.25 601.26C330.56 601.26 330 600.7 330 600.01L330 595.25C330 594.56 330.56 594 331.25 594C331.94 594 332.5 594.56 332.5 595.25L332.5 598.77L334.77 598.77C335.46999999999997 598.77 336.03 599.3199999999999 336.03 600.01C336.03 600.7 335.46999999999997 601.26 334.77 601.26 " fill="#d1d9e2" fill-opacity="1" transform="matrix(1,0,0,1,0,-540)"></path><path id="SvgjsPath1023" d="M323.25 591.51C322.56 591.51 322 590.95 322 590.26L322 577.25C322 576.56 322.56 576 323.25 576L337.88 576C338.57 576 339.13 576.56 339.13 577.25L339.13 590.26C339.13 590.95 338.57 591.51 337.88 591.51ZM324.5 589.02L336.63 589.02L336.63 578.49L324.5 578.49Z " fill="#d1d9e2" fill-opacity="1" transform="matrix(1,0,0,1,0,-540)"></path><path id="SvgjsPath1024" d="M323.25 591.51C322.56 591.51 322 590.95 322 590.26L322 577.25C322 576.56 322.56 576 323.25 576L326.44 576C327.13 576 327.69 576.56 327.69 577.25L327.69 590.26C327.69 590.95 327.13 591.51 326.44 591.51ZM324.5 589.02L325.19 589.02L325.19 578.49L324.5 578.49Z " fill="#d1d9e2" fill-opacity="1" transform="matrix(1,0,0,1,0,-540)"></path><path id="SvgjsPath1025" d="M335.25 591.51C334.56 591.51 334 590.95 334 590.26L334 577.25C334 576.56 334.56 576 335.25 576L338.44 576C339.13 576 339.69 576.56 339.69 577.25L339.69 590.26C339.69 590.95 339.13 591.51 338.44 591.51ZM336.5 589.02L337.19 589.02L337.19 578.49L336.5 578.49Z " fill="#d1d9e2" fill-opacity="1" transform="matrix(1,0,0,1,0,-540)"></path><path id="SvgjsPath1026" d="M329.25 591.51C328.56 591.51 328 590.95 328 590.26L328 577.25C328 576.56 328.56 576 329.25 576L332.44 576C333.13 576 333.69 576.56 333.69 577.25L333.69 590.26C333.69 590.95 333.13 591.51 332.44 591.51ZM330.5 589.02L331.19 589.02L331.19 578.49L330.5 578.49Z " fill="#d1d9e2" fill-opacity="1" transform="matrix(1,0,0,1,0,-540)"></path><path id="SvgjsPath1027" d="M323.25 578.77C322.56 578.77 322 578.22 322 577.53C322 572.8299999999999 325.84 569 330.57 569C335.29 569 339.13 572.83 339.13 577.53C339.13 578.22 338.57 578.77 337.88 578.77ZM336.5 576.28C335.92 573.55 333.48 571.49 330.57 571.49C327.65 571.49 325.21 573.55 324.63 576.28Z " fill="#d1d9e2" fill-opacity="1" transform="matrix(1,0,0,1,0,-540)"></path><path id="SvgjsPath1028" d="M331.25 572.07C330.56 572.07 330 571.5200000000001 330 570.83L330 561.25C330 560.56 330.56 560 331.25 560C331.94 560 332.5 560.56 332.5 561.25L332.5 570.83C332.5 571.5200000000001 331.94 572.07 331.25 572.07 " fill="#d1d9e2" fill-opacity="1" transform="matrix(1,0,0,1,0,-540)"></path><path id="SvgjsPath1029" d="M319.25 626.14C318.56 626.14 318 625.58 318 624.89L318 620.25C318 619.56 318.56 619 319.25 619C319.94 619 320.5 619.56 320.5 620.25L320.5 624.89C320.5 625.58 319.94 626.14 319.25 626.14 " fill="#d1d9e2" fill-opacity="1" transform="matrix(1,0,0,1,0,-540)"></path><path id="SvgjsPath1030" d="M323.25 626.14C322.56 626.14 322 625.58 322 624.89L322 620.25C322 619.56 322.56 619 323.25 619C323.94 619 324.5 619.56 324.5 620.25L324.5 624.89C324.5 625.58 323.94 626.14 323.25 626.14 " fill="#d1d9e2" fill-opacity="1" transform="matrix(1,0,0,1,0,-540)"></path><path id="SvgjsPath1031" d="M327.25 626.14C326.56 626.14 326 625.58 326 624.89L326 620.25C326 619.56 326.56 619 327.25 619C327.94 619 328.5 619.56 328.5 620.25L328.5 624.89C328.5 625.58 327.94 626.14 327.25 626.14 " fill="#d1d9e2" fill-opacity="1" transform="matrix(1,0,0,1,0,-540)"></path><path id="SvgjsPath1032" d="M331.25 626.14C330.56 626.14 330 625.58 330 624.89L330 620.25C330 619.56 330.56 619 331.25 619C331.94 619 332.5 619.56 332.5 620.25L332.5 624.89C332.5 625.58 331.94 626.14 331.25 626.14 " fill="#d1d9e2" fill-opacity="1" transform="matrix(1,0,0,1,0,-540)"></path><path id="SvgjsPath1033" d="M334.25 626.14C333.56 626.14 333 625.58 333 624.89L333 620.25C333 619.56 333.56 619 334.25 619C334.94 619 335.5 619.56 335.5 620.25L335.5 624.89C335.5 625.58 334.94 626.14 334.25 626.14 " fill="#d1d9e2" fill-opacity="1" transform="matrix(1,0,0,1,0,-540)"></path><path id="SvgjsPath1034" d="M338.25 626.14C337.56 626.14 337 625.58 337 624.89L337 620.25C337 619.56 337.56 619 338.25 619C338.94 619 339.5 619.56 339.5 620.25L339.5 624.89C339.5 625.58 338.94 626.14 338.25 626.14 " fill="#d1d9e2" fill-opacity="1" transform="matrix(1,0,0,1,0,-540)"></path><path id="SvgjsPath1035" d="M342.25 626.14C341.56 626.14 341 625.58 341 624.89L341 620.25C341 619.56 341.56 619 342.25 619C342.94 619 343.5 619.56 343.5 620.25L343.5 624.89C343.5 625.58 342.94 626.14 342.25 626.14 " fill="#d1d9e2" fill-opacity="1" transform="matrix(1,0,0,1,0,-540)"></path><path id="SvgjsPath1036" d="M309.25 667.74C308.56 667.74 308 667.1800000000001 308 666.49L308 652.67C308 648.99 311 646 314.7 646C318.39 646 321.39 648.99 321.39 652.67L321.39 666.49C321.39 667.1800000000001 320.83 667.74 320.14 667.74ZM318.89 665.25L318.89 652.67C318.89 650.36 317.01 648.49 314.7 648.49C312.38 648.49 310.5 650.36 310.5 652.67L310.5 665.25Z " fill="#d1d9e2" fill-opacity="1" transform="matrix(1,0,0,1,0,-540)"></path><path id="SvgjsPath1037" d="M325.25 667.74C324.56 667.74 324 667.1800000000001 324 666.49L324 652.67C324 648.99 327 646 330.7 646C334.39 646 337.39 648.99 337.39 652.67L337.39 666.49C337.39 667.1800000000001 336.83 667.74 336.14 667.74ZM334.89 665.25L334.89 652.67C334.89 650.36 333.01 648.49 330.7 648.49C328.38 648.49 326.5 650.36 326.5 652.67L326.5 665.25Z " fill="#d1d9e2" fill-opacity="1" transform="matrix(1,0,0,1,0,-540)"></path><path id="SvgjsPath1038" d="M342.25 667.74C341.56 667.74 341 667.1800000000001 341 666.49L341 652.67C341 648.99 344 646 347.7 646C351.39 646 354.39 648.99 354.39 652.67L354.39 666.49C354.39 667.1800000000001 353.83 667.74 353.14 667.74ZM351.89 665.25L351.89 652.67C351.89 650.36 350.01 648.49 347.7 648.49C345.38 648.49 343.5 650.36 343.5 652.67L343.5 665.25Z " fill="#d1d9e2" fill-opacity="1" transform="matrix(1,0,0,1,0,-540)"></path><path id="SvgjsPath1039" d="M37.25 667.57C36.56 667.57 36 667.0100000000001 36 666.33L36 607.25C36 606.56 36.56 606 37.25 606L68.05 606C68.75 606 69.31 606.56 69.31 607.25L69.31 666.33C69.31 667.01 68.75 667.57 68.05 667.57ZM38.5 665.08L66.8 665.08L66.8 608.49L38.5 608.49Z " fill="#d1d9e2" fill-opacity="1" transform="matrix(1,0,0,1,0,-540)"></path><path id="SvgjsPath1040" d="M43.25 608.8C42.56 608.8 42 608.25 42 607.56L42 588.25C42 587.56 42.56 587 43.25 587L61.05 587C61.739999999999995 587 62.3 587.56 62.3 588.25L62.3 607.56C62.3 608.25 61.739999999999995 608.8 61.05 608.8ZM44.5 606.31L59.79 606.31L59.79 589.4899999999999L44.5 589.4899999999999Z " fill="#d1d9e2" fill-opacity="1" transform="matrix(1,0,0,1,0,-540)"></path><path id="SvgjsPath1041" d="M43.25 589.75C42.83 589.75 42.44 589.53 42.2 589.18C41.970000000000006 588.8299999999999 41.940000000000005 588.39 42.1 588L51 567.75C51.2 567.29 51.65 567 52.15 567C52.65 567 53.1 567.29 53.3 567.75L62.19 588C62.36 588.39 62.32 588.83 62.089999999999996 589.18C61.86 589.53 61.47 589.75 61.05 589.75ZM59.13 587.25L52.150000000000006 571.35L45.160000000000004 587.25Z " fill="#d1d9e2" fill-opacity="1" transform="matrix(1,0,0,1,0,-540)"></path><path id="SvgjsPath1042" d="M24.25 668.42C23.56 668.42 23 667.86 23 667.17L23 618.25C23 617.56 23.56 617 24.25 617L37.07 617C37.76 617 38.32 617.56 38.32 618.25L38.32 667.17C38.32 667.86 37.76 668.42 37.07 668.42ZM25.5 665.92L35.82 665.92L35.82 619.49L25.5 619.49Z " fill="#d1d9e2" fill-opacity="1" transform="matrix(1,0,0,1,0,-540)"></path><path id="SvgjsPath1043" d="M67.25 668.42C66.56 668.42 66 667.86 66 667.17L66 618.25C66 617.56 66.56 617 67.25 617L80.07 617C80.75999999999999 617 81.32 617.56 81.32 618.25L81.32 667.17C81.32 667.86 80.75999999999999 668.42 80.07 668.42ZM68.5 665.92L78.82 665.92L78.82 619.49L68.5 619.49Z " fill="#d1d9e2" fill-opacity="1" transform="matrix(1,0,0,1,0,-540)"></path><path id="SvgjsPath1044" d="M41.25 623.97C40.56 623.97 40 623.4200000000001 40 622.73L40 613.25C40 612.56 40.56 612 41.25 612L46.25 612C46.94 612 47.5 612.56 47.5 613.25L47.5 622.73C47.5 623.4200000000001 46.94 623.97 46.25 623.97ZM42.5 621.48L45 621.48L45 614.49L42.5 614.49Z " fill="#d1d9e2" fill-opacity="1" transform="matrix(1,0,0,1,0,-540)"></path><path id="SvgjsPath1045" d="M49.25 623.97C48.56 623.97 48 623.4200000000001 48 622.73L48 613.25C48 612.56 48.56 612 49.25 612L54.25 612C54.94 612 55.5 612.56 55.5 613.25L55.5 622.73C55.5 623.4200000000001 54.94 623.97 54.25 623.97ZM50.5 621.48L53 621.48L53 614.49L50.5 614.49Z " fill="#d1d9e2" fill-opacity="1" transform="matrix(1,0,0,1,0,-540)"></path><path id="SvgjsPath1046" d="M49.25 603.97C48.56 603.97 48 603.4200000000001 48 602.73L48 593.25C48 592.56 48.56 592 49.25 592L54.25 592C54.94 592 55.5 592.56 55.5 593.25L55.5 602.73C55.5 603.4200000000001 54.94 603.97 54.25 603.97ZM50.5 601.48L53 601.48L53 594.49L50.5 594.49Z " fill="#d1d9e2" fill-opacity="1" transform="matrix(1,0,0,1,0,-540)"></path><path id="SvgjsPath1047" d="M58.25 623.97C57.56 623.97 57 623.4200000000001 57 622.73L57 613.25C57 612.56 57.56 612 58.25 612L63.25 612C63.94 612 64.5 612.56 64.5 613.25L64.5 622.73C64.5 623.4200000000001 63.94 623.97 63.25 623.97ZM59.5 621.48L62 621.48L62 614.49L59.5 614.49Z " fill="#d1d9e2" fill-opacity="1" transform="matrix(1,0,0,1,0,-540)"></path><path id="SvgjsPath1048" d="M41.25 633.14C40.56 633.14 40 632.58 40 631.89L40 626.25C40 625.56 40.56 625 41.25 625C41.94 625 42.5 625.56 42.5 626.25L42.5 631.89C42.5 632.58 41.94 633.14 41.25 633.14 " fill="#d1d9e2" fill-opacity="1" transform="matrix(1,0,0,1,0,-540)"></path><path id="SvgjsPath1049" d="M45.25 633.14C44.56 633.14 44 632.58 44 631.89L44 626.25C44 625.56 44.56 625 45.25 625C45.94 625 46.5 625.56 46.5 626.25L46.5 631.89C46.5 632.58 45.94 633.14 45.25 633.14 " fill="#d1d9e2" fill-opacity="1" transform="matrix(1,0,0,1,0,-540)"></path><path id="SvgjsPath1050" d="M50.25 633.14C49.56 633.14 49 632.58 49 631.89L49 626.25C49 625.56 49.56 625 50.25 625C50.94 625 51.5 625.56 51.5 626.25L51.5 631.89C51.5 632.58 50.94 633.14 50.25 633.14 " fill="#d1d9e2" fill-opacity="1" transform="matrix(1,0,0,1,0,-540)"></path><path id="SvgjsPath1051" d="M54.25 633.14C53.56 633.14 53 632.58 53 631.89L53 626.25C53 625.56 53.56 625 54.25 625C54.94 625 55.5 625.56 55.5 626.25L55.5 631.89C55.5 632.58 54.94 633.14 54.25 633.14 " fill="#d1d9e2" fill-opacity="1" transform="matrix(1,0,0,1,0,-540)"></path><path id="SvgjsPath1052" d="M58.25 633.14C57.56 633.14 57 632.58 57 631.89L57 626.25C57 625.56 57.56 625 58.25 625C58.94 625 59.5 625.56 59.5 626.25L59.5 631.89C59.5 632.58 58.94 633.14 58.25 633.14 " fill="#d1d9e2" fill-opacity="1" transform="matrix(1,0,0,1,0,-540)"></path><path id="SvgjsPath1053" d="M63.25 633.14C62.56 633.14 62 632.58 62 631.89L62 626.25C62 625.56 62.56 625 63.25 625C63.94 625 64.5 625.56 64.5 626.25L64.5 631.89C64.5 632.58 63.94 633.14 63.25 633.14 " fill="#d1d9e2" fill-opacity="1" transform="matrix(1,0,0,1,0,-540)"></path><path id="SvgjsPath1054" d="M41.25 642.14C40.56 642.14 40 641.58 40 640.89L40 635.25C40 634.56 40.56 634 41.25 634C41.94 634 42.5 634.56 42.5 635.25L42.5 640.89C42.5 641.58 41.94 642.14 41.25 642.14 " fill="#d1d9e2" fill-opacity="1" transform="matrix(1,0,0,1,0,-540)"></path><path id="SvgjsPath1055" d="M45.25 642.14C44.56 642.14 44 641.58 44 640.89L44 635.25C44 634.56 44.56 634 45.25 634C45.94 634 46.5 634.56 46.5 635.25L46.5 640.89C46.5 641.58 45.94 642.14 45.25 642.14 " fill="#d1d9e2" fill-opacity="1" transform="matrix(1,0,0,1,0,-540)"></path><path id="SvgjsPath1056" d="M50.25 642.14C49.56 642.14 49 641.58 49 640.89L49 635.25C49 634.56 49.56 634 50.25 634C50.94 634 51.5 634.56 51.5 635.25L51.5 640.89C51.5 641.58 50.94 642.14 50.25 642.14 " fill="#d1d9e2" fill-opacity="1" transform="matrix(1,0,0,1,0,-540)"></path><path id="SvgjsPath1057" d="M54.25 642.14C53.56 642.14 53 641.58 53 640.89L53 635.25C53 634.56 53.56 634 54.25 634C54.94 634 55.5 634.56 55.5 635.25L55.5 640.89C55.5 641.58 54.94 642.14 54.25 642.14 " fill="#d1d9e2" fill-opacity="1" transform="matrix(1,0,0,1,0,-540)"></path><path id="SvgjsPath1058" d="M58.25 642.14C57.56 642.14 57 641.58 57 640.89L57 635.25C57 634.56 57.56 634 58.25 634C58.94 634 59.5 634.56 59.5 635.25L59.5 640.89C59.5 641.58 58.94 642.14 58.25 642.14 " fill="#d1d9e2" fill-opacity="1" transform="matrix(1,0,0,1,0,-540)"></path><path id="SvgjsPath1059" d="M63.25 642.14C62.56 642.14 62 641.58 62 640.89L62 635.25C62 634.56 62.56 634 63.25 634C63.94 634 64.5 634.56 64.5 635.25L64.5 640.89C64.5 641.58 63.94 642.14 63.25 642.14 " fill="#d1d9e2" fill-opacity="1" transform="matrix(1,0,0,1,0,-540)"></path><path id="SvgjsPath1060" d="M28.25 630.14C27.56 630.14 27 629.58 27 628.89L27 623.25C27 622.56 27.56 622 28.25 622C28.94 622 29.5 622.56 29.5 623.25L29.5 628.89C29.5 629.58 28.94 630.14 28.25 630.14 " fill="#d1d9e2" fill-opacity="1" transform="matrix(1,0,0,1,0,-540)"></path><path id="SvgjsPath1061" d="M32.25 630.14C31.56 630.14 31 629.58 31 628.89L31 623.25C31 622.56 31.56 622 32.25 622C32.94 622 33.5 622.56 33.5 623.25L33.5 628.89C33.5 629.58 32.94 630.14 32.25 630.14 " fill="#d1d9e2" fill-opacity="1" transform="matrix(1,0,0,1,0,-540)"></path><path id="SvgjsPath1062" d="M28.25 641.14C27.56 641.14 27 640.58 27 639.89L27 634.25C27 633.56 27.56 633 28.25 633C28.94 633 29.5 633.56 29.5 634.25L29.5 639.89C29.5 640.58 28.94 641.14 28.25 641.14 " fill="#d1d9e2" fill-opacity="1" transform="matrix(1,0,0,1,0,-540)"></path><path id="SvgjsPath1063" d="M32.25 641.14C31.56 641.14 31 640.58 31 639.89L31 634.25C31 633.56 31.56 633 32.25 633C32.94 633 33.5 633.56 33.5 634.25L33.5 639.89C33.5 640.58 32.94 641.14 32.25 641.14 " fill="#d1d9e2" fill-opacity="1" transform="matrix(1,0,0,1,0,-540)"></path><path id="SvgjsPath1064" d="M72.25 630.14C71.56 630.14 71 629.58 71 628.89L71 623.25C71 622.56 71.56 622 72.25 622C72.94 622 73.5 622.56 73.5 623.25L73.5 628.89C73.5 629.58 72.94 630.14 72.25 630.14 " fill="#d1d9e2" fill-opacity="1" transform="matrix(1,0,0,1,0,-540)"></path><path id="SvgjsPath1065" d="M76.25 630.14C75.56 630.14 75 629.58 75 628.89L75 623.25C75 622.56 75.56 622 76.25 622C76.94 622 77.5 622.56 77.5 623.25L77.5 628.89C77.5 629.58 76.94 630.14 76.25 630.14 " fill="#d1d9e2" fill-opacity="1" transform="matrix(1,0,0,1,0,-540)"></path><path id="SvgjsPath1066" d="M72.25 641.14C71.56 641.14 71 640.58 71 639.89L71 634.25C71 633.56 71.56 633 72.25 633C72.94 633 73.5 633.56 73.5 634.25L73.5 639.89C73.5 640.58 72.94 641.14 72.25 641.14 " fill="#d1d9e2" fill-opacity="1" transform="matrix(1,0,0,1,0,-540)"></path><path id="SvgjsPath1067" d="M76.25 641.14C75.56 641.14 75 640.58 75 639.89L75 634.25C75 633.56 75.56 633 76.25 633C76.94 633 77.5 633.56 77.5 634.25L77.5 639.89C77.5 640.58 76.94 641.14 76.25 641.14 " fill="#d1d9e2" fill-opacity="1" transform="matrix(1,0,0,1,0,-540)"></path><path id="SvgjsPath1068" d="M52.25 568.93C51.56 568.93 51 568.37 51 567.68L51 561.25C51 560.56 51.56 560 52.25 560C52.94 560 53.5 560.56 53.5 561.25L53.5 567.68C53.5 568.37 52.94 568.93 52.25 568.93 " fill="#d1d9e2" fill-opacity="1" transform="matrix(1,0,0,1,0,-540)"></path><path id="SvgjsPath1069" d="M48.25 589.49C48.17 589.49 48.08 589.48 48 589.46C47.32 589.32 46.89 588.6700000000001 47.03 587.99L51.18 567.99C51.32 567.32 51.98 566.89 52.66 567.03C53.33 567.17 53.769999999999996 567.8199999999999 53.629999999999995 568.5L49.48 588.5C49.349999999999994 589.08 48.83 589.49 48.25 589.49 " fill="#d1d9e2" fill-opacity="1" transform="matrix(1,0,0,1,0,-540)"></path><path id="SvgjsPath1070" d="M56.4 589.49C55.82 589.49 55.3 589.08 55.18 588.5L51.03 568.5C50.89 567.82 51.32 567.17 52 567.03C52.68 566.89 53.34 567.3199999999999 53.48 567.99L57.629999999999995 587.99C57.769999999999996 588.67 57.33 589.32 56.66 589.46C56.56999999999999 589.48 56.489999999999995 589.49 56.4 589.49 " fill="#d1d9e2" fill-opacity="1" transform="matrix(1,0,0,1,0,-540)"></path><path id="SvgjsPath1071" d="M47.25 668.06C46.56 668.06 46 667.5 46 666.8199999999999L46 651.2499999999999C46 650.5599999999998 46.56 649.9999999999999 47.25 649.9999999999999L57.84 649.9999999999999C58.53 649.9999999999999 59.09 650.5599999999998 59.09 651.2499999999999L59.09 666.8199999999999C59.09 667.4999999999999 58.53 668.06 57.84 668.06ZM48.5 665.57L56.59 665.57L56.59 652.49L48.5 652.49Z " fill="#d1d9e2" fill-opacity="1" transform="matrix(1,0,0,1,0,-540)"></path><path id="SvgjsPath1072" d="M274.25 667.78C273.56 667.78 273 667.22 273 666.53L273 632.25C273 631.56 273.56 631 274.25 631C274.94 631 275.5 631.56 275.5 632.25L275.5 666.53C275.5 667.22 274.94 667.78 274.25 667.78 " fill="#d1d9e2" fill-opacity="1" transform="matrix(1,0,0,1,0,-540)"></path><path id="SvgjsPath1073" d="M273.86 641.11C273.8 641.08 272.36 640.5 270.93 639.17C269.01 637.38 268 635.0699999999999 268 632.5C268 626.71 273.1 619.8 273.32 619.5C273.56 619.19 273.93 619 274.33 619C274.71999999999997 619 275.09 619.19 275.33 619.5C275.55 619.8 280.65 626.71 280.65 632.5C280.65 635.07 279.64 637.38 277.71999999999997 639.17C276.28999999999996 640.5 274.84999999999997 641.0799999999999 274.78999999999996 641.11C274.64 641.16 274.47999999999996 641.19 274.33 641.19C274.16999999999996 641.19 274.01 641.1600000000001 273.85999999999996 641.11ZM272.88 624.95C271.32 627.87 270.5 630.48 270.5 632.5C270.5 636.15 273.21 637.97 274.33 638.57C275.44 637.97 278.15 636.1500000000001 278.15 632.5C278.15 630.47 277.32 627.85 275.76 624.91C275.25 623.9599999999999 274.74 623.13 274.33 622.4699999999999C273.9 623.1299999999999 273.39 623.9899999999999 272.88 624.9499999999999Z " fill="#d1d9e2" fill-opacity="1" transform="matrix(1,0,0,1,0,-540)"></path><path id="SvgjsPath1074" d="M278.67 650.05C278.37 649.8599999999999 278.17 649.54 278.12 649.1899999999999C278.1 649.03 277.57 645.26 278.93 641.6099999999999C281.75 634.0399999999998 289.5 632.1099999999999 289.83 632.0299999999999C290.27 631.9299999999998 290.72999999999996 632.0699999999998 291.03 632.3999999999999C291.34 632.7199999999999 291.45 633.1899999999998 291.30999999999995 633.6199999999999C291.30999999999995 633.6399999999999 290.56999999999994 635.9999999999999 290.37999999999994 638.4799999999999C290.34999999999997 638.93 290.3399999999999 639.3899999999999 290.3299999999999 639.8799999999999C290.2799999999999 641.9399999999998 290.2299999999999 644.2699999999999 288.05999999999995 646.1399999999999C285.00999999999993 648.7699999999999 279.8999999999999 650.1599999999999 279.67999999999995 650.2099999999999C279.5799999999999 650.2399999999999 279.46999999999997 650.2599999999999 279.35999999999996 650.2599999999999C279.11999999999995 650.2599999999999 278.87999999999994 650.1899999999998 278.66999999999996 650.0499999999998ZM286.68 636.11C284.07 637.71 282.25 639.85 281.27 642.48C280.60999999999996 644.25 280.49 646.1 280.5 647.34C282.12 646.7800000000001 284.72 645.72 286.43 644.26C287.69 643.17 287.78000000000003 641.86 287.82 639.83C287.83 639.33 287.84999999999997 638.8100000000001 287.89 638.2800000000001C287.96999999999997 637.1800000000001 288.15 636.1200000000001 288.33 635.2300000000001C287.83 635.4600000000002 287.26 635.7500000000001 286.68 636.1100000000001Z " fill="#d1d9e2" fill-opacity="1" transform="matrix(1,0,0,1,0,-540)"></path><path id="SvgjsPath1075" d="M274.25 659.35C274.14 659.35 274.03 659.34 273.92 659.3100000000001C273.25 659.12 272.86 658.44 273.05 657.7800000000001C274.83 651.3900000000001 283.22 641.83 283.58 641.4200000000001C284.03 640.9100000000001 284.82 640.8600000000001 285.34 641.3100000000001C285.85999999999996 641.7600000000001 285.90999999999997 642.5500000000001 285.46 643.07C285.44 643.09 283.32 645.5 281.03 648.61C278.04999999999995 652.66 276.11999999999995 656.0600000000001 275.46 658.44C275.29999999999995 658.99 274.79999999999995 659.35 274.25 659.35 " fill="#d1d9e2" fill-opacity="1" transform="matrix(1,0,0,1,0,-540)"></path><path id="SvgjsPath1076" d="M268.69 650.21C268.46999999999997 650.1600000000001 263.36 648.77 260.31 646.14C258.14 644.27 258.09 641.9399999999999 258.04 639.88C258.03000000000003 639.39 258.02000000000004 638.93 257.99 638.48C257.8 635.99 257.06 633.64 257.06 633.62C256.92 633.19 257.03000000000003 632.72 257.34 632.4C257.64 632.0699999999999 258.09999999999997 631.93 258.53999999999996 632.03C258.86999999999995 632.11 266.61999999999995 634.04 269.43999999999994 641.61C270.79999999999995 645.26 270.2699999999999 649.03 270.24999999999994 649.19C270.19999999999993 649.5400000000001 269.99999999999994 649.86 269.69999999999993 650.0500000000001C269.48999999999995 650.19 269.24999999999994 650.2600000000001 269.00999999999993 650.2600000000001C268.8999999999999 650.2600000000001 268.7899999999999 650.2400000000001 268.68999999999994 650.2100000000002ZM260.48 638.28C260.53000000000003 638.81 260.54 639.3299999999999 260.55 639.8299999999999C260.59000000000003 641.8599999999999 260.68 643.17 261.94 644.2599999999999C263.65 645.7199999999999 266.25 646.7799999999999 267.86 647.3399999999999C267.88 646.0999999999999 267.76 644.2399999999999 267.1 642.4799999999999C265.57000000000005 638.3799999999999 262.23 636.2399999999999 260.04 635.2299999999999C260.22 636.1199999999999 260.40000000000003 637.18 260.48 638.2799999999999Z " fill="#d1d9e2" fill-opacity="1" transform="matrix(1,0,0,1,0,-540)"></path><path id="SvgjsPath1077" d="M273.52 659.35C272.96999999999997 659.35 272.46999999999997 658.99 272.31 658.44C271.65 656.0600000000001 269.72 652.6500000000001 266.73 648.59C264.44 645.48 262.33000000000004 643.09 262.31 643.07C261.86 642.5500000000001 261.91 641.7600000000001 262.43 641.3100000000001C262.94 640.86 263.74 640.9100000000001 264.19 641.4200000000001C264.55 641.83 272.94 651.3900000000001 274.71999999999997 657.7800000000001C274.90999999999997 658.44 274.52 659.1200000000001 273.84999999999997 659.3100000000001C273.73999999999995 659.34 273.62999999999994 659.35 273.52 659.35 " fill="#d1d9e2" fill-opacity="1" transform="matrix(1,0,0,1,0,-540)"></path><path id="SvgjsPath1078" d="M234.25 667.59C233.56 667.59 233 667.0300000000001 233 666.35L233 616.25C233 615.56 233.56 615 234.25 615C234.94 615 235.5 615.56 235.5 616.25L235.5 666.35C235.5 667.03 234.94 667.59 234.25 667.59 " fill="#d1d9e2" fill-opacity="1" transform="matrix(1,0,0,1,0,-540)"></path><path id="SvgjsPath1079" d="M233.86 626.11C233.8 626.08 232.36 625.5 230.93 624.17C229.01000000000002 622.38 228 620.0699999999999 228 617.5C228 611.71 233.1 604.8 233.32 604.5C233.56 604.19 233.93 604 234.32999999999998 604C234.71999999999997 604 235.08999999999997 604.19 235.32999999999998 604.5C235.54999999999998 604.8 240.64999999999998 611.71 240.64999999999998 617.5C240.64999999999998 620.07 239.64 622.38 237.71999999999997 624.17C236.28999999999996 625.5 234.84999999999997 626.0799999999999 234.78999999999996 626.11C234.63999999999996 626.16 234.47999999999996 626.19 234.32999999999996 626.19C234.16999999999996 626.19 234.00999999999996 626.1600000000001 233.85999999999996 626.11ZM232.88 609.95C231.32 612.87 230.5 615.48 230.5 617.5C230.5 621.15 233.21 622.97 234.33 623.57C235.44000000000003 622.97 238.15 621.1500000000001 238.15 617.5C238.15 615.47 237.32 612.85 235.76000000000002 609.91C235.25000000000003 608.9599999999999 234.75000000000003 608.13 234.33 607.4699999999999C233.9 608.1299999999999 233.39000000000001 608.9899999999999 232.88000000000002 609.9499999999999Z " fill="#d1d9e2" fill-opacity="1" transform="matrix(1,0,0,1,0,-540)"></path><path id="SvgjsPath1080" d="M238.67 634.05C238.36999999999998 633.8599999999999 238.17 633.54 238.11999999999998 633.1899999999999C238.09999999999997 633.03 237.56999999999996 629.26 238.92999999999998 625.6099999999999C241.74999999999997 618.0399999999998 249.49999999999997 616.1099999999999 249.82999999999998 616.0299999999999C250.26999999999998 615.9299999999998 250.73 616.0699999999998 251.02999999999997 616.3999999999999C251.33999999999997 616.7199999999999 251.44999999999996 617.1899999999998 251.30999999999997 617.6199999999999C251.30999999999997 617.6399999999999 250.56999999999996 619.9999999999999 250.37999999999997 622.4799999999999C250.34999999999997 622.93 250.33999999999997 623.3899999999999 250.32999999999996 623.8799999999999C250.27999999999994 625.9399999999998 250.22999999999996 628.2699999999999 248.05999999999995 630.1399999999999C245.00999999999993 632.7699999999999 239.89999999999995 634.1599999999999 239.67999999999995 634.2099999999999C239.57999999999996 634.2399999999999 239.46999999999994 634.2599999999999 239.35999999999996 634.2599999999999C239.11999999999995 634.2599999999999 238.87999999999997 634.1899999999998 238.66999999999996 634.0499999999998ZM246.68 620.11C244.07 621.71 242.25 623.85 241.27 626.48C240.61 628.25 240.49 630.1 240.5 631.34C242.12 630.7800000000001 244.72 629.72 246.43 628.26C247.69 627.17 247.78 625.86 247.82 623.83C247.82999999999998 623.33 247.85 622.8100000000001 247.89 622.2800000000001C247.97 621.1800000000001 248.14999999999998 620.1200000000001 248.32999999999998 619.2300000000001C247.82999999999998 619.4600000000002 247.26 619.7500000000001 246.67999999999998 620.1100000000001Z " fill="#d1d9e2" fill-opacity="1" transform="matrix(1,0,0,1,0,-540)"></path><path id="SvgjsPath1081" d="M235.25 644.35C235.14 644.35 235.03 644.34 234.92 644.3100000000001C234.25 644.12 233.85999999999999 643.44 234.04999999999998 642.7700000000001C235.82999999999998 636.3900000000001 244.21999999999997 626.83 244.57999999999998 626.4200000000001C245.02999999999997 625.9100000000001 245.82 625.8600000000001 246.33999999999997 626.3100000000001C246.85999999999999 626.7600000000001 246.90999999999997 627.5500000000001 246.45999999999998 628.07C246.43999999999997 628.09 244.32 630.5 242.02999999999997 633.61C239.04999999999998 637.66 237.11999999999998 641.0600000000001 236.45999999999998 643.44C236.29999999999998 643.99 235.79999999999998 644.35 235.24999999999997 644.35 " fill="#d1d9e2" fill-opacity="1" transform="matrix(1,0,0,1,0,-540)"></path><path id="SvgjsPath1082" d="M229.69 634.21C229.47 634.1600000000001 224.35999999999999 632.77 221.31 630.14C219.14000000000001 628.27 219.09 625.9399999999999 219.04 623.88C219.03 623.39 219.01999999999998 622.93 218.98999999999998 622.48C218.79999999999998 619.99 218.05999999999997 617.64 218.05999999999997 617.62C217.92 617.19 218.02999999999997 616.72 218.33999999999997 616.4C218.64 616.0699999999999 219.09999999999997 615.93 219.53999999999996 616.03C219.86999999999998 616.11 227.61999999999998 618.04 230.43999999999997 625.61C231.79999999999998 629.26 231.26999999999998 633.03 231.24999999999997 633.19C231.19999999999996 633.5400000000001 230.99999999999997 633.86 230.69999999999996 634.0500000000001C230.48999999999995 634.19 230.24999999999997 634.2600000000001 230.00999999999996 634.2600000000001C229.89999999999995 634.2600000000001 229.78999999999996 634.2400000000001 229.68999999999997 634.2100000000002ZM221.48 622.28C221.53 622.81 221.54 623.3299999999999 221.54999999999998 623.8299999999999C221.58999999999997 625.8599999999999 221.67999999999998 627.17 222.93999999999997 628.2599999999999C224.64999999999998 629.7199999999999 227.24999999999997 630.7799999999999 228.85999999999996 631.3399999999999C228.87999999999997 630.0999999999999 228.75999999999996 628.2399999999999 228.09999999999997 626.4799999999999C227.11999999999998 623.8499999999999 225.29999999999995 621.7099999999999 222.68999999999997 620.1099999999999C222.10999999999996 619.7499999999999 221.53999999999996 619.4599999999999 221.03999999999996 619.2299999999999C221.21999999999997 620.1199999999999 221.39999999999998 621.18 221.47999999999996 622.2799999999999Z " fill="#d1d9e2" fill-opacity="1" transform="matrix(1,0,0,1,0,-540)"></path><path id="SvgjsPath1083" d="M234.52 644.35C233.97 644.35 233.47 643.99 233.31 643.44C232.65 641.0600000000001 230.72 637.6500000000001 227.73 633.59C225.44 630.48 223.32999999999998 628.09 223.31 628.07C222.86 627.5500000000001 222.91 626.7600000000001 223.43 626.3100000000001C223.94 625.86 224.73000000000002 625.9100000000001 225.19 626.4200000000001C225.55 626.83 233.94 636.3900000000001 235.72 642.7700000000001C235.91 643.44 235.52 644.1200000000001 234.85 644.3100000000001C234.73999999999998 644.34 234.63 644.35 234.51999999999998 644.35 " fill="#d1d9e2" fill-opacity="1" transform="matrix(1,0,0,1,0,-540)"></path><path id="SvgjsPath1084" d="M238.67 653.05C238.36999999999998 652.8599999999999 238.17 652.54 238.11999999999998 652.1899999999999C238.09999999999997 652.03 237.56999999999996 648.26 238.92999999999998 644.6099999999999C241.74999999999997 637.0399999999998 249.49999999999997 635.1099999999999 249.82999999999998 635.0299999999999C250.26999999999998 634.9299999999998 250.73 635.0699999999998 251.02999999999997 635.3999999999999C251.33999999999997 635.7199999999999 251.44999999999996 636.1899999999998 251.30999999999997 636.6199999999999C251.30999999999997 636.6399999999999 250.56999999999996 638.9999999999999 250.37999999999997 641.4799999999999C250.34999999999997 641.93 250.33999999999997 642.3899999999999 250.32999999999996 642.8799999999999C250.27999999999994 644.9399999999998 250.22999999999996 647.2699999999999 248.05999999999995 649.1399999999999C245.00999999999993 651.7699999999999 239.89999999999995 653.1599999999999 239.67999999999995 653.2099999999999C239.57999999999996 653.2399999999999 239.46999999999994 653.2599999999999 239.35999999999996 653.2599999999999C239.11999999999995 653.2599999999999 238.87999999999997 653.1899999999998 238.66999999999996 653.0499999999998ZM246.68 639.11C244.07 640.71 242.25 642.85 241.27 645.48C240.61 647.24 240.49 649.1 240.51000000000002 650.34C242.12000000000003 649.7800000000001 244.72000000000003 648.72 246.43 647.26C247.69 646.17 247.78 644.86 247.82 642.83C247.82999999999998 642.33 247.85 641.8100000000001 247.89 641.2800000000001C247.97 640.1800000000001 248.14999999999998 639.1200000000001 248.32999999999998 638.2300000000001C247.82999999999998 638.4600000000002 247.26 638.7500000000001 246.67999999999998 639.1100000000001Z " fill="#d1d9e2" fill-opacity="1" transform="matrix(1,0,0,1,0,-540)"></path><path id="SvgjsPath1085" d="M235.25 663.35C235.14 663.35 235.03 663.34 234.92 663.3100000000001C234.25 663.12 233.85999999999999 662.44 234.04999999999998 661.7800000000001C235.82999999999998 655.3900000000001 244.21999999999997 645.83 244.57999999999998 645.4200000000001C245.02999999999997 644.9100000000001 245.82 644.8600000000001 246.33999999999997 645.3100000000001C246.85999999999999 645.7600000000001 246.90999999999997 646.5500000000001 246.45999999999998 647.07C246.43999999999997 647.09 244.32 649.5 242.02999999999997 652.61C239.04999999999998 656.66 237.11999999999998 660.0600000000001 236.45999999999998 662.44C236.29999999999998 662.99 235.79999999999998 663.35 235.24999999999997 663.35 " fill="#d1d9e2" fill-opacity="1" transform="matrix(1,0,0,1,0,-540)"></path><path id="SvgjsPath1086" d="M229.69 653.21C229.47 653.1600000000001 224.35999999999999 651.77 221.31 649.14C219.14000000000001 647.27 219.09 644.9399999999999 219.04 642.88C219.03 642.39 219.01999999999998 641.93 218.98999999999998 641.48C218.79999999999998 638.99 218.05999999999997 636.64 218.05999999999997 636.62C217.92 636.19 218.02999999999997 635.72 218.33999999999997 635.4C218.64 635.0699999999999 219.09999999999997 634.93 219.53999999999996 635.03C219.86999999999998 635.11 227.61999999999998 637.04 230.43999999999997 644.61C231.79999999999998 648.26 231.26999999999998 652.03 231.24999999999997 652.19C231.19999999999996 652.5400000000001 230.99999999999997 652.86 230.69999999999996 653.0500000000001C230.48999999999995 653.19 230.24999999999997 653.2600000000001 230.00999999999996 653.2600000000001C229.89999999999995 653.2600000000001 229.78999999999996 653.2400000000001 229.68999999999997 653.2100000000002ZM221.48 641.28C221.53 641.81 221.54 642.3299999999999 221.54999999999998 642.8299999999999C221.58999999999997 644.8599999999999 221.67999999999998 646.17 222.93999999999997 647.2599999999999C224.64999999999998 648.7299999999999 227.24999999999997 649.7799999999999 228.85999999999996 650.3399999999999C228.87999999999997 649.0999999999999 228.75999999999996 647.2399999999999 228.09999999999997 645.4799999999999C227.11999999999998 642.8499999999999 225.29999999999995 640.7099999999999 222.68999999999997 639.1099999999999C222.10999999999996 638.7499999999999 221.53999999999996 638.4599999999999 221.03999999999996 638.2299999999999C221.21999999999997 639.1199999999999 221.39999999999998 640.18 221.47999999999996 641.2799999999999Z " fill="#d1d9e2" fill-opacity="1" transform="matrix(1,0,0,1,0,-540)"></path><path id="SvgjsPath1087" d="M234.52 663.35C233.97 663.35 233.47 662.99 233.31 662.44C232.65 660.0600000000001 230.72 656.6500000000001 227.73 652.59C225.44 649.48 223.32999999999998 647.09 223.31 647.07C222.86 646.5500000000001 222.91 645.7600000000001 223.43 645.3100000000001C223.94 644.86 224.74 644.9100000000001 225.19 645.4200000000001C225.55 645.83 233.94 655.3900000000001 235.72 661.7800000000001C235.91 662.44 235.52 663.1200000000001 234.85 663.3100000000001C234.73999999999998 663.34 234.63 663.35 234.51999999999998 663.35 " fill="#d1d9e2" fill-opacity="1" transform="matrix(1,0,0,1,0,-540)"></path><path id="SvgjsPath1088" d="M255.8 662.79C254.15 662.39 251.02 660.62 251 656.7099999999999C250.98 652.41 254.82 646.78 254.99 646.54C255.22 646.1999999999999 255.60000000000002 646 256.01 646C256.01 646 256.01 646 256.02 646C256.41999999999996 646 256.81 646.2 257.03999999999996 646.53C257.21 646.77 261.11999999999995 652.36 261.14 656.66C261.15999999999997 660.56 258.05 662.37 256.4 662.79C256.29999999999995 662.81 256.2 662.8199999999999 256.09999999999997 662.8199999999999C255.99999999999997 662.8199999999999 255.89999999999998 662.81 255.79999999999995 662.79ZM253.5 656.7C253.51 657.9300000000001 253.99 658.9200000000001 254.94 659.63C255.37 659.96 255.81 660.16 256.09 660.27C256.38 660.15 256.84999999999997 659.93 257.29999999999995 659.5699999999999C258.18999999999994 658.8499999999999 258.63999999999993 657.8799999999999 258.63999999999993 656.67C258.62999999999994 654.51 257.18999999999994 651.56 256.0299999999999 649.5899999999999C254.89999999999992 651.5699999999999 253.48999999999992 654.54 253.49999999999991 656.6999999999999Z " fill="#d1d9e2" fill-opacity="1" transform="matrix(1,0,0,1,0,-540)"></path><path id="SvgjsPath1089" d="M255.25 667.61L255.25 667.61C254.56 667.61 254 667.0500000000001 254 666.36L254.02 657.24C254.02 656.5600000000001 254.58 656 255.27 656L255.27 656C255.97 656 256.52 656.56 256.52 657.25L256.5 666.37C256.5 667.0600000000001 255.94 667.61 255.25 667.61 " fill="#d1d9e2" fill-opacity="1" transform="matrix(1,0,0,1,0,-540)"></path><path id="SvgjsPath1090" d="M118.25 668.01C117.56 668.01 117 667.45 117 666.76L117 608.25C117 607.56 117.56 607 118.25 607C118.94 607 119.5 607.56 119.5 608.25L119.5 666.76C119.5 667.45 118.94 668.01 118.25 668.01 " fill="#d1d9e2" fill-opacity="1" transform="matrix(1,0,0,1,0,-540)"></path><path id="SvgjsPath1091" d="M118.57 636.73C118.25 636.73 117.92999999999999 636.61 117.69 636.36L105.37 624.1C104.88000000000001 623.62 104.88000000000001 622.83 105.37 622.34C105.86 621.85 106.65 621.85 107.14 622.34L118.57 633.72L132.98999999999998 619.36C133.48 618.88 134.26999999999998 618.88 134.76 619.36C135.25 619.85 135.25 620.64 134.76 621.13L119.46 636.36C119.21 636.61 118.89 636.73 118.57 636.73 " fill="#d1d9e2" fill-opacity="1" transform="matrix(1,0,0,1,0,-540)"></path><path id="SvgjsPath1092" d="M118.28 625.89C117.96000000000001 625.89 117.65 625.78 117.4 625.54L110.38000000000001 618.68C109.88000000000001 618.1999999999999 109.87 617.41 110.36000000000001 616.92C110.84000000000002 616.43 111.63000000000001 616.42 112.13000000000001 616.9L118.27000000000001 622.9L125.84 615.36C126.32000000000001 614.88 127.12 614.88 127.61 615.36C128.09 615.85 128.09 616.64 127.61 617.13L119.17 625.53C118.92 625.77 118.60000000000001 625.89 118.28 625.89 " fill="#d1d9e2" fill-opacity="1" transform="matrix(1,0,0,1,0,-540)"></path><path id="SvgjsPath1093" d="M117.99 616.21C117.67 616.21 117.35 616.09 117.1 615.85L113.36999999999999 612.13C112.88 611.64 112.88 610.85 113.36999999999999 610.36C113.85999999999999 609.88 114.64999999999999 609.88 115.13999999999999 610.36L117.98999999999998 613.2L120.83999999999997 610.36C121.32999999999997 609.88 122.11999999999998 609.88 122.60999999999997 610.36C123.09999999999997 610.85 123.09999999999997 611.64 122.60999999999997 612.13L118.86999999999998 615.85C118.62999999999998 616.09 118.30999999999997 616.21 117.98999999999998 616.21 " fill="#d1d9e2" fill-opacity="1" transform="matrix(1,0,0,1,0,-540)"></path><path id="SvgjsPath1094" d="M139.55 635.55C138.92000000000002 635.55 138.38000000000002 635.0799999999999 138.31 634.4499999999999C138.23 633.77 138.72 633.15 139.4 633.0699999999999C143.45000000000002 632.5899999999999 146.49 629.17 146.49 625.1099999999999C146.49 622.1699999999998 144.89000000000001 619.4799999999999 142.29000000000002 618.0699999999999C141.99 617.91 141.77 617.6299999999999 141.68 617.3C141.6 616.9699999999999 141.65 616.62 141.83 616.3199999999999C142.60000000000002 615.0699999999999 143.01000000000002 613.6199999999999 143.01000000000002 612.15C143.01000000000002 607.73 139.4 604.13 134.96 604.13C133.76000000000002 604.13 132.61 604.39 131.53 604.89C131.21 605.04 130.84 605.05 130.51 604.91C130.19 604.78 129.92999999999998 604.51 129.82 604.18C128.2 599.5799999999999 123.82 596.4899999999999 118.92999999999999 596.4899999999999C116.78999999999999 596.4899999999999 114.71 597.0699999999999 112.91 598.18C112.32 598.54 111.55 598.3499999999999 111.17999999999999 597.77C110.82 597.18 111.00999999999999 596.41 111.6 596.05C113.8 594.7099999999999 116.33 594 118.92999999999999 594C124.44999999999999 594 129.42 597.23 131.69 602.15C132.74 601.81 133.82999999999998 601.64 134.96 601.64C140.78 601.64 145.51000000000002 606.35 145.51000000000002 612.15C145.51000000000002 613.67 145.18 615.17 144.55 616.54C147.32000000000002 618.49 149 621.68 149 625.11C149 630.4300000000001 145 634.92 139.7 635.54C139.64999999999998 635.55 139.6 635.55 139.54999999999998 635.55 " fill="#d1d9e2" fill-opacity="1" transform="matrix(1,0,0,1,0,-540)"></path><path id="SvgjsPath1095" d="M126.61 645.66C123.26 645.66 120 644.4599999999999 117.43 642.26C116.91000000000001 641.81 116.85000000000001 641.02 117.30000000000001 640.5C117.76 639.98 118.55000000000001 639.92 119.07000000000001 640.37C121.57000000000001 642.52 124.88000000000001 643.5 128.15 643.0600000000001C133 642.4100000000001 136.92000000000002 638.7700000000001 137.91 633.99C138.04999999999998 633.32 138.71 632.89 139.39 633.03C140.07 633.16 140.5 633.8199999999999 140.35999999999999 634.5C139.16 640.3 134.39 644.74 128.48999999999998 645.53C127.85999999999999 645.61 127.22999999999998 645.66 126.60999999999999 645.66 " fill="#d1d9e2" fill-opacity="1" transform="matrix(1,0,0,1,0,-540)"></path><path id="SvgjsPath1096" d="M97.45 635.55C97.4 635.55 97.35000000000001 635.55 97.3 635.54C92 634.92 88 630.43 88 625.11C88 621.6800000000001 89.68 618.49 92.45 616.54C91.82000000000001 615.17 91.49000000000001 613.67 91.49000000000001 612.15C91.49000000000001 606.35 96.22000000000001 601.64 102.04 601.64C103.16000000000001 601.64 104.26 601.81 105.31 602.15C107.57000000000001 597.23 112.55 594 118.07000000000001 594C120.67 594 123.2 594.71 125.4 596.05C125.99000000000001 596.41 126.17 597.18 125.81 597.77C125.45 598.35 124.68 598.54 124.09 598.18C122.29 597.0699999999999 120.2 596.4899999999999 118.07000000000001 596.4899999999999C113.18 596.4899999999999 108.80000000000001 599.5799999999999 107.18 604.18C107.06 604.51 106.81 604.78 106.48 604.91C106.16000000000001 605.05 105.79 605.04 105.47 604.89C104.39 604.39 103.24 604.13 102.03999999999999 604.13C97.6 604.13 93.99 607.73 93.99 612.15C93.99 613.63 94.39999999999999 615.0699999999999 95.17 616.3199999999999C95.35000000000001 616.6199999999999 95.4 616.9699999999999 95.31 617.3C95.22 617.63 95 617.91 94.7 618.0699999999999C92.11 619.4799999999999 90.5 622.17 90.5 625.1099999999999C90.5 629.1699999999998 93.55 632.5899999999999 97.59 633.0699999999999C98.28 633.15 98.77000000000001 633.77 98.69 634.4499999999999C98.61 635.0799999999999 98.07 635.55 97.45 635.55 " fill="#d1d9e2" fill-opacity="1" transform="matrix(1,0,0,1,0,-540)"></path><path id="SvgjsPath1097" d="M110.78 645.66C110.15 645.66 109.53 645.61 108.9 645.53C103 644.74 98.23 640.3 97.03 634.5C96.89 633.82 97.32000000000001 633.16 98 633.03C98.68 632.89 99.34 633.3199999999999 99.48 633.99C100.46000000000001 638.77 104.39 642.41 109.24000000000001 643.0600000000001C112.51 643.5000000000001 115.82000000000001 642.5200000000001 118.32000000000001 640.37C118.84 639.92 119.63000000000001 639.98 120.08000000000001 640.5C120.54 641.02 120.48000000000002 641.81 119.95000000000002 642.26C117.39000000000001 644.46 114.12000000000002 645.66 110.78000000000002 645.66 " fill="#d1d9e2" fill-opacity="1" transform="matrix(1,0,0,1,0,-540)"></path><path id="SvgjsPath1098" d="M150.25 658.31C149.56 658.31 149 657.75 149 657.06L149 648.39L149 648.38C149 648.37 149 648.37 149 648.37C149 648.19 149.04 648.02 149.11 647.86L154.37 635.92C155 634.4699999999999 156.54 633 158.29 633L166.51 633C167.2 633 167.76 633.56 167.76 634.25C167.76 634.93 167.2 635.49 166.51 635.49L158.29 635.49C157.72 635.49 156.95 636.25 156.67999999999998 636.9C156.67 636.91 156.67 636.91 156.67 636.92L151.5 648.63L151.5 657.06C151.5 657.75 150.94 658.31 150.25 658.31 " fill="#d1d9e2" fill-opacity="1" transform="matrix(1,0,0,1,0,-540)"></path><path id="SvgjsPath1099" d="M205.99 658.04C205.3 658.04 204.74 657.48 204.74 656.79L204.74 628.74C204.74 627.5 203.73000000000002 626.49 202.49 626.49L169.76000000000002 626.49C168.51000000000002 626.49 167.50000000000003 627.5 167.50000000000003 628.74L167.50000000000003 656.79C167.50000000000003 657.48 166.94000000000003 658.04 166.25000000000003 658.04C165.56000000000003 658.04 165.00000000000003 657.48 165.00000000000003 656.79L165.00000000000003 628.74C165.00000000000003 626.12 167.13000000000002 624 169.76000000000002 624L202.49 624C205.11 624 207.24 626.12 207.24 628.74L207.24 656.79C207.24 657.48 206.68 658.04 205.99 658.04 " fill="#d1d9e2" fill-opacity="1" transform="matrix(1,0,0,1,0,-540)"></path><path id="SvgjsPath1100" d="M153.25 649.55C152.83 649.55 152.43 649.3299999999999 152.2 648.9799999999999C151.97 648.6299999999999 151.94 648.18 152.10999999999999 647.8L156.79 637.18C156.87 637 156.97 636.81 157.09 636.6099999999999C157.31 636.2299999999999 157.72 635.9999999999999 158.16 635.9999999999999L162.35 635.9999999999999C163.04 635.9999999999999 163.6 636.5599999999998 163.6 637.2499999999999L163.6 648.2999999999998C163.6 648.9899999999999 163.04 649.5499999999998 162.35 649.5499999999998ZM161.09 647.06L161.09 638.4899999999999L158.95000000000002 638.4899999999999L155.17000000000002 647.06Z " fill="#d1d9e2" fill-opacity="1" transform="matrix(1,0,0,1,0,-540)"></path><path id="SvgjsPath1101" d="M186 660.08C186 655.62 189.64 652 194.11 652C198.59 652 202.23000000000002 655.62 202.23000000000002 660.08C202.23000000000002 664.5300000000001 198.59000000000003 668.1600000000001 194.11 668.1600000000001C189.64000000000001 668.1600000000001 186 664.5300000000001 186 660.08ZM188.5 660.08C188.5 663.1600000000001 191.02 665.6600000000001 194.11 665.6600000000001C197.21 665.6600000000001 199.72000000000003 663.1600000000001 199.72000000000003 660.08C199.72000000000003 657 197.21000000000004 654.49 194.11 654.49C191.02 654.49 188.5 657 188.5 660.08Z " fill="#d1d9e2" fill-opacity="1" transform="matrix(1,0,0,1,0,-540)"></path><path id="SvgjsPath1102" d="M191 660.3C191 658.4799999999999 192.48 657 194.31 657C196.14000000000001 657 197.62 658.48 197.62 660.3C197.62 662.1099999999999 196.14000000000001 663.5899999999999 194.31 663.5899999999999C192.48 663.5899999999999 191 662.1099999999999 191 660.3ZM193.5 660.3C193.5 660.74 193.86 661.0999999999999 194.31 661.0999999999999C194.76 661.0999999999999 195.12 660.7399999999999 195.12 660.3C195.12 659.8499999999999 194.76 659.49 194.31 659.49C193.86 659.49 193.5 659.85 193.5 660.3Z " fill="#d1d9e2" fill-opacity="1" transform="matrix(1,0,0,1,0,-540)"></path><path id="SvgjsPath1103" d="M150 660.08C150 655.62 153.64 652 158.11 652C162.59 652 166.23000000000002 655.62 166.23000000000002 660.08C166.23000000000002 664.5300000000001 162.59000000000003 668.1600000000001 158.11 668.1600000000001C153.64000000000001 668.1600000000001 150 664.5300000000001 150 660.08ZM152.5 660.08C152.5 663.1600000000001 155.02 665.6600000000001 158.11 665.6600000000001C161.21 665.6600000000001 163.72000000000003 663.1600000000001 163.72000000000003 660.08C163.72000000000003 657 161.21000000000004 654.49 158.11 654.49C155.02 654.49 152.5 657 152.5 660.08Z " fill="#d1d9e2" fill-opacity="1" transform="matrix(1,0,0,1,0,-540)"></path><path id="SvgjsPath1104" d="M155 660.3C155 658.4799999999999 156.48 657 158.31 657C160.14000000000001 657 161.62 658.48 161.62 660.3C161.62 662.1099999999999 160.14000000000001 663.5899999999999 158.31 663.5899999999999C156.48 663.5899999999999 155 662.1099999999999 155 660.3ZM157.5 660.3C157.5 660.74 157.86 661.0999999999999 158.31 661.0999999999999C158.76 661.0999999999999 159.12 660.7399999999999 159.12 660.3C159.12 659.8499999999999 158.76 659.49 158.31 659.49C157.86 659.49 157.5 659.85 157.5 660.3Z " fill="#d1d9e2" fill-opacity="1" transform="matrix(1,0,0,1,0,-540)"></path><path id="SvgjsPath1105" d="M188.24 658.49L164.25 658.49C163.56 658.49 163 657.9300000000001 163 657.25C163 656.56 163.56 656 164.25 656L188.24 656C188.93 656 189.49 656.56 189.49 657.25C189.49 657.93 188.93 658.49 188.24 658.49 " fill="#d1d9e2" fill-opacity="1" transform="matrix(1,0,0,1,0,-540)"></path><path id="SvgjsPath1106" d="M150.92 661.98L149 661.98C147.35 661.98 146 660.64 146 658.99C146 657.34 147.35 656 149 656L151.56 656C152.25 656 152.81 656.56 152.81 657.25C152.81 657.93 152.25 658.49 151.56 658.49L149 658.49C148.73 658.49 148.5 658.72 148.5 658.99C148.5 659.27 148.73 659.49 149 659.49L150.92 659.49C151.60999999999999 659.49 152.17 660.05 152.17 660.74C152.17 661.42 151.60999999999999 661.98 150.92 661.98 " fill="#d1d9e2" fill-opacity="1" transform="matrix(1,0,0,1,0,-540)"></path><path id="SvgjsPath1107" d="M187.71 661.49L165.25 661.49C164.56 661.49 164 660.9300000000001 164 660.25C164 659.56 164.56 659 165.25 659L187.71 659C188.4 659 188.96 659.56 188.96 660.25C188.96 660.93 188.4 661.49 187.71 661.49 " fill="#d1d9e2" fill-opacity="1" transform="matrix(1,0,0,1,0,-540)"></path><path id="SvgjsPath1108" d="M203.76 661.98L200.92 661.98C200.23 661.98 199.67 661.4200000000001 199.67 660.74C199.67 660.05 200.23 659.49 200.92 659.49L203.76 659.49C204.03 659.49 204.26 659.27 204.26 658.99L204.26 658.49L200.25 658.49C199.56 658.49 199 657.9300000000001 199 657.25C199 656.56 199.56 656 200.25 656L205.51 656C206.2 656 206.76 656.56 206.76 657.25L206.76 658.99C206.76 660.64 205.41 661.98 203.76 661.98 " fill="#d1d9e2" fill-opacity="1" transform="matrix(1,0,0,1,0,-540)"></path><path id="SvgjsPath1109" d="M117.54 588.05C116.85000000000001 588.05 116.29 587.5 116.29 586.81L116.29 585.77L115.25 585.77C114.56 585.77 114 585.22 114 584.53C114 583.8399999999999 114.56 583.28 115.25 583.28L116.29 583.28L116.29 582.25C116.29 581.56 116.85000000000001 581 117.54 581C118.23 581 118.79 581.56 118.79 582.25L118.79 583.28L119.83000000000001 583.28C120.53000000000002 583.28 121.09000000000002 583.8399999999999 121.09000000000002 584.53C121.09000000000002 585.22 120.53000000000002 585.77 119.83000000000001 585.77L118.79 585.77L118.79 586.81C118.79 587.5 118.23 588.05 117.54 588.05 " fill="#d1d9e2" fill-opacity="1" transform="matrix(1,0,0,1,0,-540)"></path><path id="SvgjsPath1110" d="M260.85 601.67C260.16 601.67 259.6 601.12 259.6 600.43L259.6 600.0799999999999L259.25 600.0799999999999C258.56 600.0799999999999 258 599.53 258 598.8399999999999C258 598.1499999999999 258.56 597.5899999999999 259.25 597.5899999999999L259.6 597.5899999999999L259.6 597.2499999999999C259.6 596.5599999999998 260.16 595.9999999999999 260.85 595.9999999999999C261.54 595.9999999999999 262.1 596.5599999999998 262.1 597.2499999999999L262.1 597.5899999999999L262.45000000000005 597.5899999999999C263.14000000000004 597.5899999999999 263.70000000000005 598.1499999999999 263.70000000000005 598.8399999999999C263.70000000000005 599.53 263.14000000000004 600.0799999999999 262.45000000000005 600.0799999999999L262.1 600.0799999999999L262.1 600.43C262.1 601.12 261.54 601.67 260.85 601.67 " fill="#d1d9e2" fill-opacity="1" transform="matrix(1,0,0,1,0,-540)"></path><path id="SvgjsPath1111" d="M204.85 591.67C204.16 591.67 203.6 591.12 203.6 590.43L203.6 590.0799999999999L203.25 590.0799999999999C202.56 590.0799999999999 202 589.53 202 588.8399999999999C202 588.1499999999999 202.56 587.5899999999999 203.25 587.5899999999999L203.6 587.5899999999999L203.6 587.2499999999999C203.6 586.5599999999998 204.16 585.9999999999999 204.85 585.9999999999999C205.54 585.9999999999999 206.1 586.5599999999998 206.1 587.2499999999999L206.1 587.5899999999999L206.45 587.5899999999999C207.14 587.5899999999999 207.7 588.1499999999999 207.7 588.8399999999999C207.7 589.53 207.14 590.0799999999999 206.45 590.0799999999999L206.1 590.0799999999999L206.1 590.43C206.1 591.12 205.54 591.67 204.85 591.67 " fill="#d1d9e2" fill-opacity="1" transform="matrix(1,0,0,1,0,-540)"></path><path id="SvgjsPath1112" d="M291.32 601.63C290.69 601.63 290.17 601.16 290.08 600.55C289.46999999999997 600.4699999999999 289 599.9499999999999 289 599.31C289 598.68 289.47 598.16 290.08 598.0799999999999C290.16999999999996 597.4699999999999 290.69 596.9999999999999 291.32 596.9999999999999C291.96 596.9999999999999 292.48 597.4699999999999 292.56 598.0799999999999C293.18 598.16 293.65 598.68 293.65 599.31C293.65 599.9499999999999 293.17999999999995 600.4699999999999 292.56 600.55C292.48 601.16 291.96 601.63 291.32 601.63 " fill="#d1d9e2" fill-opacity="1" transform="matrix(1,0,0,1,0,-540)"></path><path id="SvgjsPath1113" d="M98.32 582.63C97.69 582.63 97.16999999999999 582.16 97.08 581.55C96.47 581.4699999999999 96 580.9499999999999 96 580.31C96 579.68 96.47 579.16 97.08 579.0799999999999C97.17 578.4699999999999 97.69 577.9999999999999 98.32 577.9999999999999C98.96 577.9999999999999 99.47999999999999 578.4699999999999 99.55999999999999 579.0799999999999C100.17999999999999 579.16 100.64999999999999 579.68 100.64999999999999 580.31C100.64999999999999 580.9499999999999 100.17999999999999 581.4699999999999 99.55999999999999 581.55C99.47999999999999 582.16 98.96 582.63 98.32 582.63 " fill="#d1d9e2" fill-opacity="1" transform="matrix(1,0,0,1,0,-540)"></path><path id="SvgjsPath1114" d="M162.32 576.63C161.69 576.63 161.17 576.16 161.07999999999998 575.55C160.46999999999997 575.4699999999999 159.99999999999997 574.9499999999999 159.99999999999997 574.31C159.99999999999997 573.68 160.46999999999997 573.16 161.07999999999998 573.0799999999999C161.17 572.4699999999999 161.69 571.9999999999999 162.32 571.9999999999999C162.95999999999998 571.9999999999999 163.48 572.4699999999999 163.56 573.0799999999999C164.18 573.16 164.65 573.68 164.65 574.31C164.65 574.9499999999999 164.18 575.4699999999999 163.56 575.55C163.48 576.16 162.96 576.63 162.32 576.63 " fill="#d1d9e2" fill-opacity="1" transform="matrix(1,0,0,1,0,-540)"></path><path id="SvgjsPath1115" d="M75.54 572.05C74.85000000000001 572.05 74.29 571.5 74.29 570.81L74.29 569.77L73.25 569.77C72.56 569.77 72 569.22 72 568.53C72 567.8399999999999 72.56 567.28 73.25 567.28L74.29 567.28L74.29 566.25C74.29 565.56 74.85000000000001 565 75.54 565C76.23 565 76.79 565.56 76.79 566.25L76.79 567.28L77.83000000000001 567.28C78.53000000000002 567.28 79.09000000000002 567.8399999999999 79.09000000000002 568.53C79.09000000000002 569.22 78.53000000000002 569.77 77.83000000000001 569.77L76.79 569.77L76.79 570.81C76.79 571.5 76.23 572.05 75.54 572.05 " fill="#d1d9e2" fill-opacity="1" transform="matrix(1,0,0,1,0,-540)"></path><path id="SvgjsPath1116" d="M304.36 558.7C303.67 558.7 303.11 558.1400000000001 303.11 557.45L303.11 556.6L302.25 556.6C301.56 556.6 301 556.0400000000001 301 555.35C301 554.66 301.56 554.1 302.25 554.1L303.11 554.1L303.11 553.25C303.11 552.56 303.67 552 304.36 552C305.06 552 305.62 552.56 305.62 553.25L305.62 554.1L306.48 554.1C307.17 554.1 307.73 554.66 307.73 555.35C307.73 556.0400000000001 307.17 556.6 306.48 556.6L305.62 556.6L305.62 557.45C305.62 558.1400000000001 305.06 558.7 304.36 558.7 " fill="#d1d9e2" fill-opacity="1" transform="matrix(1,0,0,1,0,-540)"></path><path id="SvgjsPath1117" d="M264.79 581.49L252.25000000000003 581.49C251.56000000000003 581.49 251.00000000000003 580.9300000000001 251.00000000000003 580.25C251.00000000000003 579.56 251.56000000000003 579 252.25000000000003 579L264.79 579C265.48 579 266.04 579.56 266.04 580.25C266.04 580.93 265.48 581.49 264.79 581.49 " fill="#d1d9e2" fill-opacity="1" transform="matrix(1,0,0,1,0,-540)"></path><path id="SvgjsPath1118" d="M276.17 581.49L270.25 581.49C269.56 581.49 269 580.9300000000001 269 580.25C269 579.56 269.56 579 270.25 579L276.17 579C276.86 579 277.42 579.56 277.42 580.25C277.42 580.93 276.86 581.49 276.17 581.49 " fill="#d1d9e2" fill-opacity="1" transform="matrix(1,0,0,1,0,-540)"></path><path id="SvgjsPath1119" d="M272.49 585.49L259.25 585.49C258.56 585.49 258 584.9300000000001 258 584.25C258 583.56 258.56 583 259.25 583L272.49 583C273.18 583 273.74 583.56 273.74 584.25C273.74 584.93 273.18 585.49 272.49 585.49 " fill="#d1d9e2" fill-opacity="1" transform="matrix(1,0,0,1,0,-540)"></path><path id="SvgjsPath1120" d="M189.36 592.49L166.25 592.49C165.56 592.49 165 591.9300000000001 165 591.25C165 590.56 165.56 590 166.25 590L189.36 590C190.05 590 190.61 590.56 190.61 591.25C190.61 591.93 190.05 592.49 189.36 592.49 " fill="#d1d9e2" fill-opacity="1" transform="matrix(1,0,0,1,0,-540)"></path><path id="SvgjsPath1121" d="M182.46 598.49L169.25 598.49C168.56 598.49 168 597.9300000000001 168 597.25C168 596.56 168.56 596 169.25 596L182.46 596C183.15 596 183.71 596.56 183.71 597.25C183.71 597.93 183.15 598.49 182.46 598.49 " fill="#d1d9e2" fill-opacity="1" transform="matrix(1,0,0,1,0,-540)"></path><path id="SvgjsPath1122" d="M186.07 587.49L179.25 587.49C178.56 587.49 178 586.9300000000001 178 586.25C178 585.56 178.56 585 179.25 585L186.07 585C186.76 585 187.32999999999998 585.56 187.32999999999998 586.25C187.32999999999998 586.93 186.76 587.49 186.07 587.49 " fill="#d1d9e2" fill-opacity="1" transform="matrix(1,0,0,1,0,-540)"></path><path id="SvgjsPath1123" d="M173.77 587.49L170.25 587.49C169.56 587.49 169 586.9300000000001 169 586.25C169 585.56 169.56 585 170.25 585L173.77 585C174.46 585 175.02 585.56 175.02 586.25C175.02 586.93 174.46 587.49 173.77 587.49 " fill="#d1d9e2" fill-opacity="1" transform="matrix(1,0,0,1,0,-540)"></path><path id="SvgjsPath1124" d="M100.91 553.49L88.25 553.49C87.56 553.49 87 552.9300000000001 87 552.25C87 551.56 87.56 551 88.25 551L100.91 551C101.6 551 102.16 551.56 102.16 552.25C102.16 552.93 101.6 553.49 100.91 553.49 " fill="#d1d9e2" fill-opacity="1" transform="matrix(1,0,0,1,0,-540)"></path><path id="SvgjsPath1125" d="M105.33 556.49L96.25 556.49C95.56 556.49 95 555.9300000000001 95 555.25C95 554.56 95.56 554 96.25 554L105.33 554C106.02 554 106.58 554.56 106.58 555.25C106.58 555.93 106.02 556.49 105.33 556.49 " fill="#d1d9e2" fill-opacity="1" transform="matrix(1,0,0,1,0,-540)"></path><path id="SvgjsPath1126" d="M107.35 550.49L84.25 550.49C83.56 550.49 83 549.9300000000001 83 549.25C83 548.56 83.56 548 84.25 548L107.35 548C108.03999999999999 548 108.6 548.56 108.6 549.25C108.6 549.93 108.03999999999999 550.49 107.35 550.49 " fill="#d1d9e2" fill-opacity="1" transform="matrix(1,0,0,1,0,-540)"></path><path id="SvgjsPath1127" d="M100.33 553.49L91.25 553.49C90.56 553.49 90 552.9300000000001 90 552.25C90 551.56 90.56 551 91.25 551L100.33 551C101.02 551 101.58 551.56 101.58 552.25C101.58 552.93 101.02 553.49 100.33 553.49 " fill="#d1d9e2" fill-opacity="1" transform="matrix(1,0,0,1,0,-540)"></path><path id="SvgjsPath1128" d="M158.85 551.67C158.16 551.67 157.6 551.12 157.6 550.43L157.6 550.0799999999999L157.25 550.0799999999999C156.56 550.0799999999999 156 549.53 156 548.8399999999999C156 548.1499999999999 156.56 547.5899999999999 157.25 547.5899999999999L157.6 547.5899999999999L157.6 547.2499999999999C157.6 546.5599999999998 158.16 545.9999999999999 158.85 545.9999999999999C159.54 545.9999999999999 160.1 546.5599999999998 160.1 547.2499999999999L160.1 547.5899999999999L160.45 547.5899999999999C161.14 547.5899999999999 161.7 548.1499999999999 161.7 548.8399999999999C161.7 549.53 161.14 550.0799999999999 160.45 550.0799999999999L160.1 550.0799999999999L160.1 550.43C160.1 551.12 159.54 551.67 158.85 551.67 " fill="#d1d9e2" fill-opacity="1" transform="matrix(1,0,0,1,0,-540)"></path><path id="SvgjsPath1129" d="M190.85 613.67C190.16 613.67 189.6 613.12 189.6 612.43L189.6 612.0799999999999L189.25 612.0799999999999C188.56 612.0799999999999 188 611.53 188 610.8399999999999C188 610.1499999999999 188.56 609.5899999999999 189.25 609.5899999999999L189.6 609.5899999999999L189.6 609.2499999999999C189.6 608.5599999999998 190.16 607.9999999999999 190.85 607.9999999999999C191.54 607.9999999999999 192.1 608.5599999999998 192.1 609.2499999999999L192.1 609.5899999999999L192.45 609.5899999999999C193.14 609.5899999999999 193.7 610.1499999999999 193.7 610.8399999999999C193.7 611.53 193.14 612.0799999999999 192.45 612.0799999999999L192.1 612.0799999999999L192.1 612.43C192.1 613.12 191.54 613.67 190.85 613.67 " fill="#d1d9e2" fill-opacity="1" transform="matrix(1,0,0,1,0,-540)"></path><path id="SvgjsPath1130" d="M235.13 578.24C234.44 578.24 233.88 577.6800000000001 233.88 576.99L233.88 576.36L233.25 576.36C232.56 576.36 232 575.8100000000001 232 575.12C232 574.43 232.56 573.87 233.25 573.87L233.88 573.87L233.88 573.25C233.88 572.56 234.44 572 235.13 572C235.82 572 236.38 572.56 236.38 573.25L236.38 573.87L237.01 573.87C237.7 573.87 238.26999999999998 574.43 238.26999999999998 575.12C238.26999999999998 575.8100000000001 237.7 576.36 237.01 576.36L236.38 576.36L236.38 576.99C236.38 577.6800000000001 235.82 578.24 235.13 578.24 " fill="#d1d9e2" fill-opacity="1" transform="matrix(1,0,0,1,0,-540)"></path><path id="SvgjsPath1131" d="M208.29 558.49L184.25 558.49C183.56 558.49 183 557.9300000000001 183 557.25C183 556.56 183.56 556 184.25 556L208.29 556C208.98 556 209.54 556.56 209.54 557.25C209.54 557.93 208.98 558.49 208.29 558.49 " fill="#d1d9e2" fill-opacity="1" transform="matrix(1,0,0,1,0,-540)"></path><path id="SvgjsPath1132" d="M215.49 562.49L198.25 562.49C197.56 562.49 197 561.9300000000001 197 561.25C197 560.56 197.56 560 198.25 560L215.49 560C216.19 560 216.75 560.56 216.75 561.25C216.75 561.93 216.19 562.49 215.49 562.49 " fill="#d1d9e2" fill-opacity="1" transform="matrix(1,0,0,1,0,-540)"></path></svg>