<?xml version="1.0" encoding="UTF-8" standalone="no"?>
<svg width="141px" height="126px" viewBox="0 0 141 126" version="1.1" xmlns="http://www.w3.org/2000/svg" xmlns:xlink="http://www.w3.org/1999/xlink">
    <!-- Generator: Sketch 39 (31667) - http://www.bohemiancoding.com/sketch -->
    <title>Group 3</title>
    <desc>Created with Sketch.</desc>
    <defs>
        <linearGradient x1="0%" y1="50%" x2="65.4873659%" y2="50%" id="linearGradient-1">
            <stop stop-color="#3777C4" offset="0%"></stop>
            <stop stop-color="#5F98E6" offset="35.0745376%"></stop>
            <stop stop-color="#6FAAFF" offset="83.7257562%"></stop>
            <stop stop-color="#6FAAFF" offset="100%"></stop>
        </linearGradient>
        <linearGradient x1="0%" y1="50%" x2="65.4873659%" y2="50%" id="linearGradient-2">
            <stop stop-color="#3777C4" offset="0%"></stop>
            <stop stop-color="#5F98E6" offset="35.0745376%"></stop>
            <stop stop-color="#6FAAFF" offset="83.7257562%"></stop>
            <stop stop-color="#6FAAFF" offset="100%"></stop>
        </linearGradient>
    </defs>
    <g id="user-(authorization&amp;menu)" stroke="none" stroke-width="1" fill="none" fill-rule="evenodd">
        <g id="sign-up" transform="translate(-117.000000, -155.000000)">
            <g id="logo" transform="translate(117.000000, 154.000000)">
                <g id="Group-3" transform="translate(0.000000, 1.000000)">
                    <path d="M13.3051279,102.514995 L17.5527744,102.514995 L17.5527744,116.972079 C17.5527744,119.826281 16.9749753,121.925536 15.8193598,123.269907 C14.2681283,125.089978 11.930905,126 8.80761989,126 C7.14186785,126 5.74161604,125.793177 4.60682246,125.379524 C3.47202888,124.965872 2.51423582,124.358329 1.73341455,123.556877 C0.952593283,122.755425 0.37479421,121.780771 0,120.632885 L4.70052054,120.632885 C5.11695856,121.108586 5.65311445,121.467941 6.30900432,121.710962 C6.96489419,121.953983 7.74049835,122.075491 8.63584007,122.075491 C9.7810446,122.075491 10.7023999,121.899692 11.3999335,121.548087 C12.0974672,121.196482 12.5893772,120.741471 12.8756784,120.18304 C13.1619795,119.624609 13.3051279,118.662882 13.3051279,117.297828 C12.5555395,118.042403 11.7695245,118.577558 10.9470595,118.903309 C10.1245944,119.229061 9.19282833,119.391934 8.1517333,119.391934 C5.87173519,119.391934 3.94573828,118.574982 2.37368479,116.941055 C0.801631302,115.307127 0.0156163473,113.238896 0.0156163473,110.736298 C0.0156163473,108.057898 0.848479876,105.906937 2.51423192,104.283351 C4.02381971,102.814884 5.82488709,102.080662 7.91748809,102.080662 C8.89611742,102.080662 9.8200754,102.259047 10.6893897,102.615822 C11.5587041,102.972597 12.4306081,103.559458 13.3051279,104.376422 L13.3051279,102.514995 Z M8.88570163,106.036194 C7.54268904,106.036194 6.43393947,106.48345 5.55941965,107.377973 C4.68489983,108.272497 4.24764647,109.397098 4.24764647,110.75181 C4.24764647,112.158228 4.69531062,113.311267 5.59065234,114.210962 C6.48599407,115.110656 7.61035983,115.560496 8.96378336,115.560496 C10.285974,115.560496 11.3765047,115.120997 12.2354081,114.241986 C13.0943115,113.362974 13.5237568,112.209935 13.5237568,110.782834 C13.5237568,109.376415 13.0917088,108.233717 12.2276,107.354705 C11.3634911,106.475694 10.2495361,106.036194 8.88570163,106.036194 L8.88570163,106.036194 Z M29.8428397,102.080662 C31.4461261,102.080662 32.9530885,102.478796 34.3637723,103.275078 C35.7744561,104.071359 36.8753975,105.15201 37.6666297,106.517063 C38.457862,107.882116 38.8534721,109.355731 38.8534721,110.937952 C38.8534721,112.530515 38.4552593,114.019641 37.6588216,115.405377 C36.8623839,116.791113 35.7770586,117.87435 34.4028132,118.655119 C33.0285677,119.435888 31.5137972,119.826267 29.8584561,119.826267 C27.4222937,119.826267 25.3427376,118.965365 23.6197253,117.243537 C21.8967131,115.521708 21.0352198,113.430209 21.0352198,110.968976 C21.0352198,108.331941 22.0086291,106.134445 23.9554768,104.376422 C25.6628726,102.845908 27.6253073,102.080662 29.8428397,102.080662 L29.8428397,102.080662 Z M29.9053051,106.067218 C28.5831144,106.067218 27.482173,106.524814 26.6024477,107.440021 C25.7227224,108.355227 25.2828663,109.526363 25.2828663,110.953464 C25.2828663,112.421931 25.717517,113.611164 26.5868313,114.5212 C27.4561457,115.431235 28.5570871,115.886246 29.8896888,115.886246 C31.2222904,115.886246 32.33104,115.426065 33.2159708,114.505688 C34.1009015,113.585311 34.5433603,112.401248 34.5433603,110.953464 C34.5433603,109.50568 34.1087096,108.329374 33.2393953,107.424509 C32.3700809,106.519644 31.2587287,106.067218 29.9053051,106.067218 L29.9053051,106.067218 Z M46.5679477,96 L46.5679477,104.376422 C47.338358,103.611165 48.1712216,103.03723 49.0665633,102.654602 C49.961905,102.271973 50.9196981,102.080662 51.9399712,102.080662 C54.1575036,102.080662 56.0418573,102.913125 57.5930889,104.578077 C59.1443205,106.243028 59.9199247,108.378477 59.9199247,110.984488 C59.9199247,113.497427 59.1182935,115.599268 57.5150072,117.290072 C55.9117209,118.980877 54.0117509,119.826267 51.8150404,119.826267 C50.8364111,119.826267 49.9254666,119.653052 49.0821796,119.306618 C48.2388927,118.960184 47.4008237,118.394006 46.5679477,117.608066 L46.5679477,119.391934 L42.3359176,119.391934 L42.3359176,96 L46.5679477,96 Z M51.0498394,105.989659 C49.7068268,105.989659 48.5928719,106.44467 47.7079411,107.354705 C46.8230103,108.264741 46.3805516,109.453974 46.3805516,110.922441 C46.3805516,112.421931 46.8230103,113.634432 47.7079411,114.559979 C48.5928719,115.485527 49.7068268,115.948294 51.0498394,115.948294 C52.3512082,115.948294 53.4469443,115.477771 54.3370805,114.536711 C55.2272168,113.595652 55.6722782,112.396078 55.6722782,110.937952 C55.6722782,109.490169 55.2350249,108.303521 54.360505,107.377973 C53.4859852,106.452426 52.382441,105.989659 51.0498394,105.989659 L51.0498394,105.989659 Z M63.4336028,102.514995 L67.7437147,102.514995 L67.7437147,110.643226 C67.7437147,112.225447 67.853028,113.324195 68.071658,113.939504 C68.2902879,114.554812 68.6416522,115.03309 69.1257614,115.374354 C69.6098706,115.715617 70.2058886,115.886246 70.9138332,115.886246 C71.6217778,115.886246 72.2230012,115.718202 72.7175213,115.38211 C73.2120415,115.046017 73.579022,114.552227 73.8184738,113.900724 C73.99546,113.414682 74.0839517,112.375396 74.0839517,110.782834 L74.0839517,102.514995 L78.3628309,102.514995 L78.3628309,109.665977 C78.3628309,112.613252 78.128588,114.629777 77.6600952,115.715615 C77.087493,117.039303 76.2442187,118.055322 75.130247,118.763702 C74.0162753,119.472082 72.6004073,119.826267 70.8826005,119.826267 C69.0190404,119.826267 67.512078,119.41262 66.361668,118.585315 C65.211258,117.75801 64.4018187,116.604971 63.9333259,115.126163 C63.6001755,114.102373 63.4336028,112.240965 63.4336028,109.541882 L63.4336028,102.514995 Z M95.1972533,96 L99.4448998,96 L99.4448998,119.391934 L95.1972533,119.391934 L95.1972533,117.608066 C94.3643773,118.394006 93.528911,118.960184 92.6908295,119.306618 C91.8527481,119.653052 90.9444063,119.826267 89.9657769,119.826267 C87.7690664,119.826267 85.8690965,118.980877 84.2658102,117.290072 C82.6625238,115.599268 81.8608927,113.497427 81.8608927,110.984488 C81.8608927,108.378477 82.6364968,106.243028 84.1877284,104.578077 C85.73896,102.913125 87.6233138,102.080662 89.8408462,102.080662 C90.8611193,102.080662 91.8189123,102.271973 92.7142541,102.654602 C93.6095958,103.03723 94.4372539,103.611165 95.1972533,104.376422 L95.1972533,96 Z M90.7153616,105.989659 C89.3931709,105.989659 88.2948321,106.452426 87.4203123,107.377973 C86.5457925,108.303521 86.1085392,109.490169 86.1085392,110.937952 C86.1085392,112.396078 86.5536006,113.595652 87.4437368,114.536711 C88.3338731,115.477771 89.4296092,115.948294 90.730978,115.948294 C92.0739905,115.948294 93.1879455,115.485527 94.0728763,114.559979 C94.9578071,113.634432 95.4002658,112.421931 95.4002658,110.922441 C95.4002658,109.453974 94.9578071,108.264741 94.0728763,107.354705 C93.1879455,106.44467 92.0687851,105.989659 90.7153616,105.989659 L90.7153616,105.989659 Z M116.310555,96 L120.558201,96 L120.558201,119.391934 L116.310555,119.391934 L116.310555,117.608066 C115.477679,118.394006 114.642213,118.960184 113.804131,119.306618 C112.96605,119.653052 112.057708,119.826267 111.079079,119.826267 C108.882368,119.826267 106.982398,118.980877 105.379112,117.290072 C103.775825,115.599268 102.974194,113.497427 102.974194,110.984488 C102.974194,108.378477 103.749798,106.243028 105.30103,104.578077 C106.852262,102.913125 108.736615,102.080662 110.954148,102.080662 C111.974421,102.080662 112.932214,102.271973 113.827556,102.654602 C114.722897,103.03723 115.550556,103.611165 116.310555,104.376422 L116.310555,96 Z M111.828663,105.989659 C110.506473,105.989659 109.408134,106.452426 108.533614,107.377973 C107.659094,108.303521 107.221841,109.490169 107.221841,110.937952 C107.221841,112.396078 107.666902,113.595652 108.557038,114.536711 C109.447175,115.477771 110.542911,115.948294 111.84428,115.948294 C113.187292,115.948294 114.301247,115.485527 115.186178,114.559979 C116.071109,113.634432 116.513567,112.421931 116.513567,110.922441 C116.513567,109.453974 116.071109,108.264741 115.186178,107.354705 C114.301247,106.44467 113.182087,105.989659 111.828663,105.989659 L111.828663,105.989659 Z M122.978735,102.514995 L127.335696,102.514995 L131.755122,113.109617 L136.627423,102.514995 L141,102.514995 L130.349651,125.565667 L125.945841,125.565667 L129.443903,118.135471 L122.978735,102.514995 Z" id="gobuddy" fill="url(#linearGradient-1)"></path>
                    <g id="logo" transform="translate(7.000000, 0.000000)">
                        <g id="Group-Copy-2">
                            <g id="user-(authorization&amp;menu)">
                                <g id="Group-Copy-2">
                                    <g id="Group">
                                        <g id="user-(authorization&amp;menu)">
                                            <g id="sign-up">
                                                <g id="logo">
                                                    <g id="Group-Copy-2">
                                                        <path d="M49,4.90000611 C49,2.2490393 51.1562981,0.100006104 53.808259,0.100006104 L93.634779,0.100006104 C96.2903071,0.100006104 98.443038,2.25443348 98.443038,4.90000611 C98.443038,7.5509729 96.2867399,9.70000608 93.634779,9.70000608 L53.808259,9.70000608 C51.1527309,9.70000608 49,7.54557872 49,4.90000611 L49,4.90000611 L49,4.90000611 Z M19,4.90000611 C19,2.2490393 21.1631206,0.100006104 23.8053218,0.100006104 L35.7263237,0.100006104 C38.3802297,0.100006104 40.5316456,2.25443348 40.5316456,4.90000611 C40.5316456,7.5509729 38.368525,9.70000608 35.7263237,9.70000608 L23.8053218,9.70000608 C21.1514159,9.70000608 19,7.54557872 19,4.90000611 L19,4.90000611 L19,4.90000611 Z M29.5063291,67.3000061 C29.5063291,64.6490393 31.6694497,62.5000061 34.311651,62.5000061 L46.2326528,62.5000061 C48.8865588,62.5000061 51.0379747,64.6544335 51.0379747,67.3000061 C51.0379747,69.9509729 48.8748541,72.1000061 46.2326528,72.1000061 L34.311651,72.1000061 C31.657745,72.1000061 29.5063291,69.9455788 29.5063291,67.3000061 L29.5063291,67.3000061 L29.5063291,67.3000061 Z M0,20.9000061 C0,18.2490393 2.16312058,16.1000061 4.80532184,16.1000061 L16.7263237,16.1000061 C19.3802297,16.1000061 21.5316456,18.2544335 21.5316456,20.9000061 C21.5316456,23.5509729 19.368525,25.7000061 16.7263237,25.7000061 L4.80532184,25.7000061 C2.15141587,25.7000061 0,23.5455787 0,20.9000061 L0,20.9000061 L0,20.9000061 Z M0,52.1000061 C0,49.4490393 2.16312058,47.3000061 4.80532184,47.3000061 L16.7263237,47.3000061 C19.3802297,47.3000061 21.5316456,49.4544335 21.5316456,52.1000061 C21.5316456,54.7509729 19.368525,56.9000061 16.7263237,56.9000061 L4.80532184,56.9000061 C2.15141587,56.9000061 0,54.7455787 0,52.1000061 L0,52.1000061 L0,52.1000061 Z M29.5063291,20.9000061 C29.5063291,18.2490393 31.6642571,16.1000061 34.3114429,16.1000061 L65.3721014,16.1000061 C68.0258925,16.1000061 70.1772152,18.2544335 70.1772152,20.9000061 C70.1772152,23.5509729 68.0192872,25.7000061 65.3721014,25.7000061 L34.3114429,25.7000061 C31.6576518,25.7000061 29.5063291,23.5455787 29.5063291,20.9000061 L29.5063291,20.9000061 L29.5063291,20.9000061 Z M22.3291139,36.1000061 C22.3291139,33.4490393 24.4831895,31.3000061 27.1363914,31.3000061 L59.7876592,31.3000061 C62.4426453,31.3000061 64.5949367,33.4544335 64.5949367,36.1000061 C64.5949367,38.7509729 62.4408611,40.9000061 59.7876592,40.9000061 L27.1363914,40.9000061 C24.4814054,40.9000061 22.3291139,38.7455787 22.3291139,36.1000061 L22.3291139,36.1000061 L22.3291139,36.1000061 Z M34.3136066,47.3000061 L66.9648744,47.3000061 C69.6198605,47.3000061 71.7721519,49.4544335 71.7721519,52.1000061 C71.7721519,54.7509729 69.6180763,56.9000061 66.9648744,56.9000061 L34.3136066,56.9000061 C31.6586206,56.9000061 29.5063291,54.7455787 29.5063291,52.1000061 C29.5063291,49.4490393 31.6604047,47.3000061 34.3136066,47.3000061 L34.3136066,47.3000061 Z M59.0126582,67.3000061 C59.0126582,64.6490393 61.1679403,62.5000061 63.8180065,62.5000061 L89.2959176,62.5000061 C91.9498381,62.5000061 94.1012658,64.6544335 94.1012658,67.3000061 C94.1012658,69.9509729 91.9459837,72.1000061 89.2959176,72.1000061 L63.8180065,72.1000061 C61.1640859,72.1000061 59.0126582,69.9455788 59.0126582,67.3000061 L59.0126582,67.3000061 L59.0126582,67.3000061 Z" id="Combined-Shape" fill="url(#linearGradient-2)"></path>
                                                        <g id="Group-2" transform="translate(56.620253, 0.000000)" fill="#6FAAFF">
                                                            <g id="Group">
                                                                <path d="M53.9437685,60.6847942 C56.1561781,62.3471219 59.2036777,62.0471227 61.0919223,60.0297706 L59.1266597,58.0627115 L57.0792555,56.1873853 C47.0886095,67.8516897 30.1809436,69.8900153 18.0400447,60.7677656 C5.03399967,50.995475 2.22456613,32.0448707 11.7843936,18.4373473 C21.344221,4.82982394 39.640053,1.73698326 52.6460981,11.5092739 C39.5985063,1.7652816 21.3144716,4.85612798 11.7770174,18.4318052 C2.23956323,32.0074823 5.04718521,50.9458671 18.0674109,60.7288125 C30.1100028,69.7771978 46.8255965,67.8694212 56.8417896,56.4736008 L52.7938806,52.6688956 C44.6417187,61.9439337 31.0526055,63.4948803 21.2817967,56.1534338 C10.7157145,48.2144466 8.43287989,32.8159351 16.2023372,21.7568367 C23.9717944,10.6977384 38.838264,8.18461838 49.4043462,16.1236056 L51.617006,17.7861214 L53.2241989,15.4984321 L56.4659509,10.8841003 L58.0731438,8.59641104 L55.8604839,6.93389526 C40.4002953,-4.68235352 18.6868982,-1.01178648 7.35907381,15.1123157 C-3.96875053,31.236418 -0.634529594,53.7268954 14.8256589,65.3431442 C29.2595854,76.1882953 49.327678,73.7689604 61.1740639,59.9380378 L57.1613972,56.0956525 C57.1652446,56.1147429 52.7502057,52.7676785 52.7502057,52.7676785 C50.9710221,55.3001804 51.4967153,58.8461634 53.9437685,60.6847942 L53.9437685,60.6847942 L53.9437685,60.6847942 L53.9437685,60.6847942 Z M62.0799329,47.6964858 C57.3583647,59.7818649 45.2718465,67.45672 32.0976023,65.8864719 C15.9766984,63.9650092 4.12421813,48.966352 5.63962219,32.3736297 C7.15502624,15.7809074 21.4623783,3.9002604 37.5832822,5.82172309 L35.0954744,2.70527401 L34.5815986,8.33189121 L37.5789442,5.86922171 C21.4404636,3.94566403 7.14233702,15.8186503 5.63047952,32.37254 C4.11862202,48.9264297 15.9634597,63.9154156 32.1019403,65.8389733 C45.2735502,67.4089074 57.3559305,59.760506 62.0833141,47.6975744 C62.0821869,47.6972119 62.0810598,47.696849 62.0799329,47.6964858 L62.0799329,47.6964858 L62.0799329,47.6964858 Z" id="Combined-Shape"></path>
                                                                <path d="M51.2446972,9.03413643 C48.9875241,11.135728 48.823237,14.7346729 50.8581537,17.0716542 C52.8930705,19.4086356 56.3715772,19.6158756 58.6287502,17.514284 C60.8859233,15.4126923 61.0502104,11.8137475 59.0152937,9.47676615 C56.980377,7.1397848 53.5018703,6.93254482 51.2446972,9.03413643 L51.2446972,9.03413643 L51.2446972,9.03413643 Z" id="Combined-Shape-path"></path>
                                                            </g>
                                                            <path d="M56.4550674,46.6999969 C52.3034499,55.8176835 42.8557248,61.4808742 32.6114781,60.2598547 C19.5148915,58.6988626 9.88403479,46.511547 11.1156331,33.0263196 C12.3472314,19.5410922 23.9728198,9.88734826 37.0694064,11.4483403 L39.8119832,11.7752301 L40.0667521,8.9856708 L40.5806279,3.35905359 L40.8353968,0.569494303 L38.09282,0.242604508 C18.9300221,-2.04142383 1.95013191,12.0584656 0.154468634,31.7198501 C-1.64119464,51.3812347 12.4252665,69.1815621 31.5880645,71.4655905 C49.4276421,73.5919032 65.5631993,61.4788568 69.0109827,43.6267679 C69.0554265,43.413839 69.0881932,43.1957734 69.1085193,42.9732149 C69.2911797,40.9731986 68.4252598,39.0912908 66.9683899,37.915218 C66.188268,37.2211395 65.1802325,36.7777877 64.0703137,36.7092915 C63.7123943,36.6712012 63.359667,36.6690501 63.0155012,36.6999969 L38.3912183,36.6999969 C35.7426918,36.6999969 33.5796982,38.8533332 33.5796982,41.5096082 L33.5796982,41.8903857 C33.5796982,44.5547461 35.7338891,46.6999969 38.3912183,46.6999969 L56.4550674,46.6999969 L56.4550674,46.6999969 L56.4550674,46.6999969 Z" id="Combined-Shape"></path>
                                                        </g>
                                                    </g>
                                                </g>
                                            </g>
                                        </g>
                                    </g>
                                </g>
                            </g>
                        </g>
                    </g>
                </g>
            </g>
        </g>
    </g>
</svg>