<svg id="SvgjsSvg1111" xmlns="http://www.w3.org/2000/svg" version="1.1" xmlns:xlink="http://www.w3.org/1999/xlink" xmlns:svgjs="http://svgjs.com/svgjs" width="38.1875" height="33.1875" viewBox="0 0 38.1875 33.1875"><title>Path</title><desc>Created with Avocode.</desc><defs id="SvgjsDefs1112"></defs><path id="SvgjsPath1113" d="M48.53 731.78C44.93 731.78 42 728.8299999999999 42 725.1999999999999C42 721.8199999999999 45.11 717.8199999999999 47.17 715.18C47.39 714.89 47.61 714.62 47.800000000000004 714.3599999999999C47.970000000000006 714.1299999999999 48.24 713.9999999999999 48.53 713.9999999999999L48.53 713.9999999999999C48.82 713.9999999999999 49.09 714.1299999999999 49.26 714.3599999999999C49.449999999999996 714.6099999999999 49.66 714.8699999999999 49.87 715.1499999999999C51.94 717.7999999999998 55.059999999999995 721.7999999999998 55.059999999999995 725.1999999999998C55.059999999999995 728.8299999999998 52.129999999999995 731.7799999999999 48.529999999999994 731.7799999999999Z " fill-opacity="0" fill="#ffffff" stroke-dasharray="0" stroke-linejoin="miter" stroke-linecap="butt" stroke-opacity="1" stroke="#6faaff" stroke-miterlimit="50" stroke-width="2.375" transform="matrix(1,0,0,1,-40.8125,-712.8125)"></path><path id="SvgjsPath1114" d="M50.81 724C50.300000000000004 724 49.89 724.41 49.89 724.91C49.89 725.4499999999999 49.45 725.88 48.910000000000004 725.88C48.410000000000004 725.88 48.00000000000001 726.29 48.00000000000001 726.8C48.00000000000001 727.3 48.410000000000004 727.7099999999999 48.910000000000004 727.7099999999999C50.46 727.7099999999999 51.720000000000006 726.4499999999999 51.720000000000006 724.91C51.720000000000006 724.41 51.31000000000001 724 50.81000000000001 724Z " fill="#6faaff" fill-opacity="1" transform="matrix(1,0,0,1,-40.8125,-712.8125)"></path><path id="SvgjsPath1115" d="M79 737.6C79 736.82 79 735.75 78.99 735.24C78.92999999999999 732.62 78.33999999999999 732.09 76.14999999999999 730.12C75.89999999999999 729.9 75.63 729.65 75.33 729.38C75.13 729.2 74.92999999999999 729.01 74.72 728.8C74.38 728.4799999999999 74.03999999999999 728.15 73.66 727.8199999999999C73.36 727.5699999999999 73.08 727.3399999999999 72.82 727.1099999999999C69.41 724.1999999999999 68 722.9999999999999 64.47 722.9999999999999L58.15 722.9999999999999C57.64 722.9999999999999 57.23 723.4099999999999 57.23 723.9299999999998C57.23 724.4399999999998 57.63999999999999 724.8499999999998 58.15 724.8499999999998L64.47 724.8499999999998C67.33 724.8499999999998 68.24 725.6299999999998 71.64 728.5299999999997C71.91 728.7499999999998 72.19 728.9899999999998 72.48 729.2399999999998C72.82000000000001 729.5299999999997 73.14 729.8399999999998 73.45 730.1399999999998C73.66 730.3499999999998 73.88000000000001 730.5599999999997 74.10000000000001 730.7599999999998C74.41000000000001 731.0399999999997 74.69000000000001 731.2799999999997 74.94000000000001 731.5099999999998C75.42000000000002 731.9499999999998 75.80000000000001 732.2799999999997 76.09000000000002 732.5699999999997L63.09000000000002 732.5699999999997C62.90000000000002 732.4999999999997 62.170000000000016 732.0599999999997 60.820000000000014 730.6899999999997C59.740000000000016 729.5999999999997 58.990000000000016 728.6799999999997 58.87000000000001 728.4499999999997C58.67000000000001 727.9899999999997 58.140000000000015 727.7799999999997 57.680000000000014 727.9699999999997C57.22000000000001 728.1699999999997 56.990000000000016 728.7099999999997 57.19000000000001 729.1799999999997C57.45000000000001 729.8199999999997 58.87000000000001 731.3499999999997 59.59000000000001 732.0699999999997C61.95000000000001 734.4199999999997 62.71000000000001 734.4199999999997 63.04000000000001 734.4199999999997L77.12000000000002 734.4199999999997C77.15000000000002 734.6599999999997 77.16000000000003 734.9399999999997 77.16000000000003 735.2799999999997C77.17000000000003 735.7699999999998 77.17000000000003 736.8199999999997 77.17000000000003 737.5899999999997L77.16000000000003 738.1599999999997C77.16000000000003 738.5399999999997 77.16000000000003 738.9699999999997 77.16000000000003 739.4899999999998C77.16000000000003 739.6299999999998 77.09000000000003 739.7699999999998 76.98000000000002 739.8899999999998C76.44000000000001 738.0899999999998 74.79000000000002 736.7799999999997 72.84000000000002 736.7799999999997C70.46000000000002 736.7799999999997 68.52000000000001 738.7399999999998 68.52000000000001 741.1499999999997C68.52000000000001 743.5599999999997 70.46000000000001 745.5199999999998 72.84 745.5199999999998C74.96000000000001 745.5199999999998 76.73 743.9599999999998 77.09 741.9199999999997C78.2 741.5499999999997 78.99000000000001 740.5899999999997 78.99000000000001 739.4899999999998C78.99000000000001 738.9699999999998 78.99000000000001 738.5399999999997 78.99000000000001 738.1699999999997ZM66.52 741.15C66.52 740.64 66.11 740.22 65.6 740.22L60.31999999999999 740.22C59.89999999999999 738.25 58.169999999999995 736.78 56.099999999999994 736.78C54.14999999999999 736.78 52.49999999999999 738.0899999999999 51.959999999999994 739.89C51.89999999999999 739.83 51.85999999999999 739.77 51.82999999999999 739.6999999999999C51.78999999999999 739.6299999999999 51.76999999999999 739.56 51.76999999999999 739.4899999999999L51.76999999999999 733.31C51.76999999999999 732.8 51.35999999999999 732.38 50.85999999999999 732.38C50.349999999999994 732.38 49.93999999999999 732.8 49.93999999999999 733.31L49.93999999999999 739.4899999999999C49.93999999999999 739.8499999999999 50.01999999999999 740.1999999999999 50.18999999999999 740.5299999999999C50.50999999999999 741.1899999999998 51.11999999999999 741.6899999999998 51.84999999999999 741.9199999999998C52.20999999999999 743.9599999999998 53.97999999999999 745.5199999999999 56.09999999999999 745.5199999999999C58.16999999999999 745.5199999999999 59.899999999999984 744.0399999999998 60.319999999999986 742.0699999999998L65.59999999999998 742.0699999999998C66.10999999999999 742.0699999999998 66.51999999999998 741.6599999999999 66.51999999999998 741.1499999999999ZM58.59 741.15C58.59 742.54 57.470000000000006 743.67 56.1 743.67C54.730000000000004 743.67 53.61 742.54 53.61 741.15L53.61 741.14C53.62 739.76 54.73 738.63 56.1 738.63C57.47 738.63 58.59 739.76 58.59 741.15ZM75.33 741.16C75.32 742.54 74.21 743.67 72.84 743.67C71.47 743.67 70.36 742.54 70.36 741.15C70.36 739.76 71.47 738.63 72.84 738.63C74.21000000000001 738.63 75.32000000000001 739.75 75.33 741.13C75.33 741.14 75.33 741.15 75.33 741.16ZM47.49 735.68C47.49 735.16 47.080000000000005 734.75 46.580000000000005 734.75L41.92 734.75C41.410000000000004 734.75 41 735.16 41 735.68C41 736.1899999999999 41.41 736.5999999999999 41.92 736.5999999999999L46.58 736.5999999999999C47.08 736.5999999999999 47.489999999999995 736.1899999999999 47.489999999999995 735.68ZM44.49 738.08C43.99 738.08 43.580000000000005 738.49 43.580000000000005 739C43.580000000000005 739.52 43.99 739.93 44.49 739.93L46.58 739.93C47.08 739.93 47.489999999999995 739.52 47.489999999999995 739C47.489999999999995 738.49 47.08 738.08 46.58 738.08ZM55.46 734.42L56.49 734.42C57 734.42 57.410000000000004 734.01 57.410000000000004 733.5C57.410000000000004 732.98 57.00000000000001 732.57 56.49 732.57L55.46 732.57C54.95 732.57 54.550000000000004 732.98 54.550000000000004 733.5C54.550000000000004 734.01 54.95 734.42 55.46 734.42ZM71.93 741.15C71.93 741.66 72.34 742.0699999999999 72.84 742.0699999999999C73.35000000000001 742.0699999999999 73.76 741.66 73.76 741.15C73.76 740.64 73.35000000000001 740.22 72.84 740.22C72.34 740.22 71.93 740.64 71.93 741.15ZM56.1 740.22C56.61 740.22 57.02 740.64 57.02 741.15C57.02 741.66 56.61000000000001 742.0699999999999 56.1 742.0699999999999C55.6 742.0699999999999 55.18 741.66 55.18 741.15C55.18 740.64 55.589999999999996 740.22 56.1 740.22Z " fill="#365e8d" fill-opacity="1" transform="matrix(1,0,0,1,-40.8125,-712.8125)"></path></svg>