<svg id="SvgjsSvg1060" xmlns="http://www.w3.org/2000/svg" version="1.1" xmlns:xlink="http://www.w3.org/1999/xlink" xmlns:svgjs="http://svgjs.com/svgjs" width="32" height="30.68836770651137" viewBox="0 0 32 30.68836770651137"><title>Rectangle 46</title><desc>Created with Avocode.</desc><defs id="SvgjsDefs1061"><clipPath id="SvgjsClipPath1064"><path id="SvgjsPath1063" d="M172 467C172 465.34315 173.34315 464 175 464L201 464C202.65685 464 204 465.34315 204 467L204 487C204 488.65685 202.65685 490 201 490L175 490C173.34315 490 172 488.65685 172 487Z " fill="#ffffff"></path></clipPath></defs><path id="SvgjsPath1062" d="M172 467C172 465.34315 173.34315 464 175 464L201 464C202.65685 464 204 465.34315 204 467L204 487C204 488.65685 202.65685 490 201 490L175 490C173.34315 490 172 488.65685 172 487Z " fill-opacity="0" fill="#ffffff" stroke-dasharray="0" stroke-linejoin="miter" stroke-linecap="butt" stroke-opacity="1" stroke="#365e8d" stroke-miterlimit="50" stroke-width="4" clip-path="url(&quot;#SvgjsClipPath1064&quot;)" transform="matrix(1,0,0,1,-172,-464)"></path><path id="SvgjsPath1065" d="M173 481L203 481 " fill-opacity="0" fill="#ffffff" stroke-dasharray="0" stroke-linejoin="miter" stroke-linecap="square" stroke-opacity="1" stroke="#365e8d" stroke-miterlimit="50" stroke-width="2" transform="matrix(1,0,0,1,-172,-464)"></path><path id="SvgjsPath1066" d="M187 485.5C187 484.67157 187.67157 484 188.5 484C189.32843 484 190 484.67157 190 485.5C190 486.32843 189.32843 487 188.5 487C187.67157 487 187 486.32843 187 485.5Z " fill-opacity="0" fill="#ffffff" stroke-dasharray="0" stroke-linejoin="miter" stroke-linecap="butt" stroke-opacity="1" stroke="#6faaff" stroke-miterlimit="50" stroke-width="2" transform="matrix(1,0,0,1,-172,-464)"></path><path id="SvgjsPath1067" d="M179 493C182.19 493 183.09 492.17 183.09 489ZM196 493C192.81 493 191.91 492.17 191.91 489Z " fill-opacity="0" fill="#ffffff" stroke-dasharray="0" stroke-linejoin="miter" stroke-linecap="round" stroke-opacity="1" stroke="#365e8d" stroke-miterlimit="50" stroke-width="2" transform="matrix(1,0,0,1,-172,-464)"></path></svg>