<svg id="SvgjsSvg1048" xmlns="http://www.w3.org/2000/svg" version="1.1" xmlns:xlink="http://www.w3.org/1999/xlink" xmlns:svgjs="http://svgjs.com/svgjs" width="23.591679898065337" height="34.589395743496425" viewBox="0 0 23.591679898065337 34.589395743496425"><title>Shape</title><desc>Created with Avocode.</desc><defs id="SvgjsDefs1049"><clipPath id="SvgjsClipPath1052"><path id="SvgjsPath1051" d="M50.70416 495.7947L50.70416 461.20529999999997L74.29584 461.20529999999997L74.29584 495.7947ZM72.12 474.09L68.91000000000001 475.28999999999996L67.54 473.53C67.56 472.53999999999996 67.03 471.59 66.10000000000001 471.13C65.42 470.79 64.66000000000001 470.8 64.01 471.08L60.190000000000005 470.38C60.07000000000001 470.36 59.95 470.36 59.830000000000005 470.37C59.50000000000001 470.34000000000003 59.160000000000004 470.43 58.88 470.64L55.34 473.32C54.720000000000006 473.79 54.59 474.69 55.050000000000004 475.32C55.510000000000005 475.96 56.39000000000001 476.09 57.010000000000005 475.62L60.10000000000001 473.27L62.09000000000001 473.64L59.68000000000001 478.65C59.580000000000005 478.85999999999996 59.510000000000005 479.08 59.470000000000006 479.29999999999995C59.45 479.3299999999999 59.42000000000001 479.35999999999996 59.400000000000006 479.38999999999993C58.900000000000006 480.13999999999993 59.080000000000005 481.1599999999999 59.82000000000001 481.67999999999995L60.11000000000001 481.87999999999994L57.67000000000001 486.5299999999999L52.46000000000001 486.9799999999999C51.57000000000001 487.0699999999999 50.92000000000001 487.8699999999999 51.010000000000005 488.7799999999999C51.09 489.6799999999999 51.870000000000005 490.3499999999999 52.75000000000001 490.25999999999993L58.53000000000001 489.75999999999993C58.61000000000001 489.74999999999994 58.70000000000001 489.72999999999996 58.78000000000001 489.7099999999999C59.32000000000001 489.6699999999999 59.830000000000005 489.36999999999995 60.10000000000001 488.8499999999999L62.78000000000001 483.7499999999999L66.83000000000001 486.5999999999999L69.06000000000002 492.9399999999999C69.38000000000001 493.7899999999999 70.30000000000001 494.20999999999987 71.13000000000001 493.8899999999999C71.96000000000001 493.5699999999999 72.38000000000001 492.6199999999999 72.06000000000002 491.76999999999987L69.72000000000001 485.1199999999999C69.62000000000002 484.8499999999999 69.46000000000001 484.6299999999999 69.26000000000002 484.4499999999999C69.15000000000002 484.28999999999985 69.01000000000002 484.1399999999999 68.84000000000002 484.0099999999999L64.30000000000001 480.83999999999986L66.35000000000001 476.58999999999986L67.18 477.66999999999985C67.25 477.7599999999998 67.33000000000001 477.82999999999987 67.41000000000001 477.89999999999986C67.78000000000002 478.33999999999986 68.39000000000001 478.52999999999986 68.95000000000002 478.3199999999999L73.09000000000002 476.77999999999986C73.81000000000002 476.5099999999999 74.18000000000002 475.67999999999984 73.91000000000001 474.9399999999999C73.65 474.1999999999999 72.85000000000001 473.8199999999999 72.12 474.08999999999986ZM65.74 466.44C65.42999999999999 468.06 66.47 469.64 68.05999999999999 469.95C69.64999999999999 470.26 71.17999999999999 469.2 71.47999999999999 467.57C71.78999999999999 465.94 70.74999999999999 464.37 69.16 464.05C67.58 463.74 66.03999999999999 464.81 65.74 466.44Z " fill="#ffffff"></path></clipPath></defs><path id="SvgjsPath1050" d="M69.16 464.05C70.75 464.37 71.78999999999999 465.94 71.47999999999999 467.57C71.17999999999999 469.2 69.64999999999999 470.26 68.05999999999999 469.95C66.46999999999998 469.64 65.42999999999999 468.06 65.74 466.44C66.03999999999999 464.81 67.58 463.74 69.16 464.05ZM72.12 474.09L68.91000000000001 475.28999999999996L67.54 473.53C67.56 472.53999999999996 67.03 471.59 66.10000000000001 471.13C65.42 470.79 64.66000000000001 470.8 64.01 471.08L60.190000000000005 470.38C60.07000000000001 470.36 59.95 470.36 59.830000000000005 470.37C59.50000000000001 470.34000000000003 59.160000000000004 470.43 58.88 470.64L55.34 473.32C54.720000000000006 473.79 54.59 474.69 55.050000000000004 475.32C55.510000000000005 475.96 56.39000000000001 476.09 57.010000000000005 475.62L60.10000000000001 473.27L62.09000000000001 473.64L59.68000000000001 478.65C59.580000000000005 478.85999999999996 59.510000000000005 479.08 59.470000000000006 479.29999999999995C59.45 479.3299999999999 59.42000000000001 479.35999999999996 59.400000000000006 479.38999999999993C58.900000000000006 480.13999999999993 59.080000000000005 481.1599999999999 59.82000000000001 481.67999999999995L60.11000000000001 481.87999999999994L57.67000000000001 486.5299999999999L52.46000000000001 486.9799999999999C51.57000000000001 487.0699999999999 50.92000000000001 487.8699999999999 51.010000000000005 488.7799999999999C51.09 489.6799999999999 51.870000000000005 490.3499999999999 52.75000000000001 490.25999999999993L58.53000000000001 489.75999999999993C58.61000000000001 489.74999999999994 58.70000000000001 489.72999999999996 58.78000000000001 489.7099999999999C59.32000000000001 489.6699999999999 59.830000000000005 489.36999999999995 60.10000000000001 488.8499999999999L62.78000000000001 483.7499999999999L66.83000000000001 486.5999999999999L69.06000000000002 492.9399999999999C69.38000000000001 493.7899999999999 70.30000000000001 494.20999999999987 71.13000000000001 493.8899999999999C71.96000000000001 493.5699999999999 72.38000000000001 492.6199999999999 72.06000000000002 491.76999999999987L69.72000000000001 485.1199999999999C69.62000000000002 484.8499999999999 69.46000000000001 484.6299999999999 69.26000000000002 484.4499999999999C69.15000000000002 484.28999999999985 69.01000000000002 484.1399999999999 68.84000000000002 484.0099999999999L64.30000000000001 480.83999999999986L66.35000000000001 476.58999999999986L67.18 477.66999999999985C67.25 477.7599999999998 67.33000000000001 477.82999999999987 67.41000000000001 477.89999999999986C67.78000000000002 478.33999999999986 68.39000000000001 478.52999999999986 68.95000000000002 478.3199999999999L73.09000000000002 476.77999999999986C73.81000000000002 476.5099999999999 74.18000000000002 475.67999999999984 73.91000000000001 474.9399999999999C73.65 474.1999999999999 72.85000000000001 473.8199999999999 72.12 474.08999999999986Z " fill-opacity="0" fill="#ffffff" stroke-dasharray="0" stroke-linejoin="miter" stroke-linecap="butt" stroke-opacity="1" stroke="#365e8d" stroke-miterlimit="50" stroke-width="3.75" clip-path="url(&quot;#SvgjsClipPath1052&quot;)" transform="matrix(1,0,0,1,-50.70416005096733,-461.2053021282518)"></path></svg>