<svg id="SvgjsSvg1009" xmlns="http://www.w3.org/2000/svg" version="1.1" xmlns:xlink="http://www.w3.org/1999/xlink" xmlns:svgjs="http://svgjs.com/svgjs" width="32" height="32" viewBox="0 0 32 32"><title>Fill 58</title><desc>Created with Avocode.</desc><defs id="SvgjsDefs1010"></defs><path id="SvgjsPath1011" d="M68.98 256.51L73.15 247.57C70.21000000000001 245.2 66.61 244 63.00000000000001 244C59.39000000000001 244 55.790000000000006 245.2 52.85000000000001 247.57L62.07000000000001 267.33L62.080000000000005 267.35999999999996C62.27 267.78 62.61000000000001 267.94999999999993 63.00000000000001 267.96C63.400000000000006 267.95 63.730000000000004 267.78 63.92000000000001 267.35999999999996L63.93000000000001 267.33L65.62 263.7C64.10000000000001 263.14 63.00000000000001 261.69 63.00000000000001 259.96C63.00000000000001 257.76 64.79 255.96999999999997 67 255.95999999999998C67.72 255.95999999999998 68.39 256.16999999999996 68.98 256.51ZM49.32 245.31C49.11 245.51 49 245.77 49 246.05C49 246.29000000000002 49.09 246.53 49.27 246.73000000000002C49.470000000000006 246.94000000000003 49.730000000000004 247.05 50 247.05C50.25 247.05 50.48 246.96 50.68 246.78C50.74 246.73 50.8 246.68 50.87 246.63C50.89 246.6 50.919999999999995 246.59 50.94 246.56C54.36 243.53 58.68 242 63 242C67.32 242 71.64 243.53 75.06 246.56C75.09 246.59 75.11 246.6 75.14 246.63C75.2 246.68 75.26 246.73 75.32000000000001 246.78C75.52000000000001 246.96 75.76 247.05 76.00000000000001 247.05C76.27000000000001 247.05 76.54000000000002 246.94 76.74000000000001 246.73000000000002C76.91000000000001 246.53000000000003 77.00000000000001 246.29000000000002 77.00000000000001 246.05C77.00000000000001 245.77 76.89000000000001 245.51000000000002 76.68000000000002 245.31C72.85000000000002 241.77 67.93000000000002 240 63.00000000000002 240C58.07000000000002 240 53.15000000000002 241.77 49.32000000000002 245.31ZM66.47 261.88L68.13 258.33C67.81 258.09999999999997 67.42 257.96 67 257.96C65.9 257.96999999999997 65 258.85999999999996 65 259.96C65 260.88 65.63 261.65 66.47 261.88ZM50 249.05C49.2 249.05 48.38 248.72 47.8 248.08C47.269999999999996 247.51000000000002 47 246.77 47 246.05C47 245.24 47.33 244.43 47.97 243.84C52.18 239.95000000000002 57.6 238 63 238C68.4 238 73.82 239.94 78.03999999999999 243.84C78.66999999999999 244.43 78.99999999999999 245.23 78.99999999999999 246.03C78.99999999999999 246.76 78.73999999999998 247.48 78.19999999999999 248.06C77.61999999999999 248.69 76.79999999999998 249 75.99999999999999 248.99C75.58999999999999 249 75.17999999999999 248.85000000000002 74.78999999999999 248.68L65.74 267.96000000000004C65.22999999999999 268.96000000000004 64.08999999999999 269.77000000000004 62.99999999999999 269.75000000000006C61.90999999999999 269.77000000000004 60.769999999999996 268.96000000000004 60.25999999999999 267.96000000000004L51.209999999999994 248.68000000000004C50.81999999999999 248.85000000000002 50.41 249.05000000000004 49.99999999999999 249.05000000000004Z " fill="#365e8d" fill-opacity="1" transform="matrix(1,0,0,1,-47,-238)"></path><path id="SvgjsPath1012" d="M61 252C59.9 252 59 251.1 59 250C59 248.9 59.9 248 61 248C62.1 248 63 248.9 63 250C63 251.1 62.1 252 61 252ZM61 254C63.21 254 65 252.21 65 250C65 247.79 63.21 246 61 246C58.79 246 57 247.79 57 250C57 252.21 58.79 254 61 254Z " fill="#6faaff" fill-opacity="1" transform="matrix(1,0,0,1,-47,-238)"></path></svg>