<svg id="SvgjsSvg1000" xmlns="http://www.w3.org/2000/svg" version="1.1" xmlns:xlink="http://www.w3.org/1999/xlink" xmlns:svgjs="http://svgjs.com/svgjs" width="28" height="32" viewBox="0 0 28 32"><title>Fill 128</title><desc>Created with Avocode.</desc><defs id="SvgjsDefs1001"></defs><path id="SvgjsPath1007" d="M176 259L192 259L192 241L176 241ZM200 259L200 240.43L197 237.43L194 240.43L194 259ZM180 232.02L180 235L196 235L196 232.02C196 231.46 195.55 231 195 231L181 231C180.45 231 180 231.46 180 232.02ZM192.59 239L194.59 237L179.41 237L177.41 239ZM198 235.6L201.71 239.31C201.89000000000001 239.49 202 239.75 202 240.02L202 260.02C202 260.28 201.89 260.53 201.71 260.71C201.52 260.9 201.26000000000002 261 201 261L175 261C174.74 261 174.48 260.9 174.29 260.71C174.10999999999999 260.53 174 260.28 174 260.02L174 240.01999999999998C174 239.74999999999997 174.11 239.48999999999998 174.29 239.30999999999997L178 235.59999999999997L178 232.01999999999995C178 230.35999999999996 179.34 228.99999999999994 181 228.99999999999994L195 228.99999999999994C196.66 228.99999999999994 198 230.35999999999996 198 232.01999999999995Z " fill="#365e8d" fill-opacity="1" transform="matrix(1,0,0,1,-174,-229)"></path><path id="SvgjsPath1008" d="M184 248.47C184.36 248.87 184.74 249.29 185.07 249.73C185.35999999999999 250.1 185.60999999999999 250.48 185.78 250.79999999999998C185.94 251.11999999999998 186 251.38 186 251.49999999999997C186 252.59999999999997 185.1 253.48999999999998 184 253.49999999999997C182.9 253.48999999999998 182 252.59999999999997 182 251.49999999999997C182 251.37999999999997 182.06 251.11999999999998 182.23 250.79999999999998C182.57999999999998 250.08999999999997 183.32999999999998 249.20999999999998 184 248.46999999999997ZM188 251.5C188 250.9 187.8 250.38 187.56 249.89C186.82 248.45 185.44 247.10999999999999 184.74 246.32999999999998C184.55 246.11999999999998 184.28 245.99999999999997 184 245.99999999999997C183.72 245.99999999999997 183.45 246.11999999999998 183.26 246.32999999999998C182.79999999999998 246.83999999999997 182.01999999999998 247.63 181.35 248.49999999999997C181.01 248.93999999999997 180.69 249.39999999999998 180.44 249.88999999999996C180.2 250.37999999999997 180 250.89999999999995 180 251.49999999999997C180 253.69999999999996 181.79 255.48999999999998 184 255.49999999999997C186.21 255.48999999999998 188 253.69999999999996 188 251.49999999999997Z " fill="#6faaff" fill-opacity="1" transform="matrix(1,0,0,1,-174,-229)"></path></svg>