<svg id="SvgjsSvg1079" xmlns="http://www.w3.org/2000/svg" version="1.1" xmlns:xlink="http://www.w3.org/1999/xlink" xmlns:svgjs="http://svgjs.com/svgjs" width="33" height="30" viewBox="0 0 33 30"><title>Fill 107</title><desc>Created with Avocode.</desc><defs id="SvgjsDefs1080"></defs><path id="SvgjsPath1081" d="M68 600L68 592C68 591.45 67.55 591 67 591C66.45 591 66 591.45 66 592L66 600C66 600.55 66.45 601 67 601C67.55 601 68 600.55 68 600 " fill="#6faaff" fill-opacity="1" transform="matrix(1,0,0,1,-46,-589)"></path><path id="SvgjsPath1082" d="M51 603L59 603C59.55 603 60 602.55 60 602C60 601.45 59.55 601 59 601L51 601C50.45 601 50 601.45 50 602C50 602.55 50.45 603 51 603 " fill="#6faaff" fill-opacity="1" transform="matrix(1,0,0,1,-46,-589)"></path><path id="SvgjsPath1083" d="M57 611L49 611C48.45 611 48 611.45 48 612C48 612.55 48.45 613 49 613L57 613C57.55 613 58 612.55 58 612C58 611.45 57.55 611 57 611 " fill="#6faaff" fill-opacity="1" transform="matrix(1,0,0,1,-46,-589)"></path><path id="SvgjsPath1084" d="M62 591L62 601C62 601.55 62.45 602 63 602C63.55 602 64 601.55 64 601L64 591C64 590.45 63.55 590 63 590C62.45 590 62 590.45 62 591 " fill="#6faaff" fill-opacity="1" transform="matrix(1,0,0,1,-46,-589)"></path><path id="SvgjsPath1085" d="M69 599L67 599C66.74 599 66.48 599.11 66.29 599.29C66.11 599.48 66 599.74 66 600C66 600.55 65.55 601 65 601L59 601C58.52 601 58.11 601.34 58.02 601.8L56.02 611.8C55.96 612.0999999999999 56.040000000000006 612.4 56.230000000000004 612.63C56.42 612.87 56.7 613 57.00000000000001 613L60.00000000000001 613L60.00000000000001 617L48.00000000000001 617L48.00000000000001 613L49.00000000000001 613C49.480000000000004 613 49.89000000000001 612.66 49.980000000000004 612.2L51.980000000000004 602.2C52.040000000000006 601.9000000000001 51.96 601.6 51.77 601.37C51.580000000000005 601.13 51.300000000000004 601 51 601L49 601C48.45 601 48 600.55 48 600L48 592C48 591.45 48.45 591 49 591L65 591C65.55 591 66 591.45 66 592C66 592.26 66.11 592.52 66.29 592.71C66.48 592.89 66.74000000000001 593 67 593L69 593C69.55 593 70 593.45 70 594L70 598C70 598.55 69.55 599 69 599ZM72 595L72 594C72 592.34 70.66 591 69 591L67.82 591C67.39999999999999 589.84 66.30999999999999 589 65 589L49 589C47.34 589 46 590.34 46 592L46 600C46 601.66 47.34 603 49 603L49.78 603L48.18 611L47 611C46.74 611 46.48 611.11 46.29 611.29C46.11 611.48 46 611.74 46 612L46 618C46 618.26 46.11 618.52 46.29 618.71C46.48 618.89 46.74 619 47 619L61 619C61.26 619 61.52 618.89 61.71 618.71C61.89 618.52 62 618.26 62 618L62 612C62 611.74 61.89 611.48 61.71 611.29C61.52 611.11 61.26 611 61 611L58.22 611L59.82 603L65 603C66.31 603 67.4 602.16 67.82 601L69 601C70.66 601 72 599.66 72 598L72 597L78 597C78.55 597 79 596.55 79 596C79 595.45 78.55 595 78 595Z " fill="#365e8d" fill-opacity="1" transform="matrix(1,0,0,1,-46,-589)"></path></svg>