<svg id="SvgjsSvg1019" xmlns="http://www.w3.org/2000/svg" version="1.1" xmlns:xlink="http://www.w3.org/1999/xlink" xmlns:svgjs="http://svgjs.com/svgjs" width="32" height="32" viewBox="0 0 32 32"><title>Fill 1</title><desc>Created with Avocode.</desc><defs id="SvgjsDefs1020"></defs><path id="SvgjsPath1021" d="M48 355L78 355L78 353L48 353Z " fill="#365e8d" fill-opacity="1" transform="matrix(1,0,0,1,-47,-347)"></path><path id="SvgjsPath1022" d="M63 359C59.14 359 56 362.14 56 366C56 369.86 59.14 373 63 373C66.86 373 70 369.86 70 366C70 362.14 66.86 359 63 359Z " fill-opacity="0" fill="#ffffff" stroke-dasharray="0" stroke-linejoin="miter" stroke-linecap="butt" stroke-opacity="1" stroke="#6faaff" stroke-miterlimit="50" stroke-width="1.75" transform="matrix(1,0,0,1,-47,-347)"></path><path id="SvgjsPath1023" d="M73.56 351L75.44 351C75.75 351 76 350.78 76 350.5C76 350.22 75.75 350 75.44 350L73.56 350C73.25 350 73 350.22 73 350.5C73 350.78 73.25 351 73.56 351Z " fill="#6faaff" fill-opacity="1" transform="matrix(1,0,0,1,-47,-347)"></path><path id="SvgjsPath1024" d="M70.44 351C70.75 351 71 350.78 71 350.5C71 350.22 70.75 350 70.44 350L66.56 350C66.25 350 66 350.22 66 350.5C66 350.78 66.25 351 66.56 351Z " fill="#6faaff" fill-opacity="1" transform="matrix(1,0,0,1,-47,-347)"></path><path id="SvgjsPath1025" d="M78.22 347L47.7 347C47.31 347 47 347.31 47 347.7L47 378.21999999999997C47 378.59999999999997 47.31 378.91999999999996 47.7 378.91999999999996L78.22 378.91999999999996C78.6 378.91999999999996 78.92 378.59999999999997 78.92 378.21999999999997L78.92 347.7C78.92 347.31 78.60000000000001 347 78.22 347Z " fill-opacity="0" fill="#ffffff" stroke-dasharray="0" stroke-linejoin="miter" stroke-linecap="butt" stroke-opacity="1" stroke="#365e8d" stroke-miterlimit="50" stroke-width="2" transform="matrix(1,0,0,1,-47,-347)"></path></svg>