<svg id="SvgjsSvg1026" xmlns="http://www.w3.org/2000/svg" version="1.1" xmlns:xlink="http://www.w3.org/1999/xlink" xmlns:svgjs="http://svgjs.com/svgjs" width="32.23650605474535" height="33.31434160452693" viewBox="0 0 32.23650605474535 33.31434160452693"><title>Fill 1</title><desc>Created with Avocode.</desc><defs id="SvgjsDefs1027"><clipPath id="SvgjsClipPath1033"><path id="SvgjsPath1032" d="M181.87852 387.16434L181.87852 364.83565999999996L203.12148000000002 364.83565999999996L203.12148000000002 387.16434ZM200.84 372.17C200.9 371.92 200.8 371.66 200.58 371.52000000000004C198.67000000000002 370.26000000000005 196.34 368.72 193.76000000000002 367.00000000000006L184.00000000000003 376.76000000000005C185.42000000000002 379.01000000000005 186.87000000000003 381.31000000000006 188.37000000000003 383.7300000000001C188.50000000000003 383.9500000000001 188.78000000000003 384.06000000000006 189.03000000000003 384.00000000000006C191.65000000000003 383.33000000000004 194.00000000000003 382.0400000000001 195.94000000000003 380.2900000000001L191.49000000000004 375.8500000000001L192.71000000000004 374.62000000000006L197.16000000000003 379.06000000000006C197.78000000000003 378.37000000000006 198.35000000000002 377.62000000000006 198.85000000000002 376.82000000000005L195.91000000000003 373.88000000000005L197.13000000000002 372.66L199.72000000000003 375.24C200.19000000000003 374.27 200.56000000000003 373.24 200.84000000000003 372.17Z " fill="#ffffff"></path></clipPath></defs><path id="SvgjsPath1028" d="M190.8 362.88C190.42000000000002 362.62 189.96 362.48 189.49 362.48C188.87 362.48 188.28 362.72 187.84 363.16L186.45000000000002 364.56L176.64000000000001 354.75C176.16000000000003 354.27 175.52 354 174.83 354C174.14000000000001 354 173.5 354.27 173.02 354.75L171.75 356.02C171.27 356.5 171 357.14 171 357.83C171 358.52 171.27 359.15999999999997 171.75 359.64L181.56 369.45L180.4 370.61C179.62 371.38 179.49 372.61 180.09 373.53000000000003C182.41 377.13000000000005 184.75 380.82000000000005 187.22 384.82000000000005C187.65 385.50000000000006 188.41 385.9200000000001 189.21 385.9200000000001C189.4 385.9200000000001 189.59 385.9000000000001 189.78 385.8500000000001C196.2 384.2000000000001 201.2 379.19000000000005 202.84 372.7700000000001C203.08 371.8100000000001 202.69 370.7900000000001 201.86 370.2500000000001C198.95000000000002 368.3300000000001 195.06 365.7600000000001 190.8 362.8800000000001ZM172.97 358.42C172.82 358.26 172.73 358.05 172.73 357.83000000000004C172.73 357.61 172.82 357.40000000000003 172.97 357.24000000000007L174.24 355.9700000000001C174.4 355.8200000000001 174.61 355.7300000000001 174.83 355.7300000000001C175.05 355.7300000000001 175.26000000000002 355.82000000000005 175.42000000000002 355.9700000000001L185.23000000000002 365.7800000000001L182.78000000000003 368.2300000000001ZM181.62 371.83L189.07 364.39C189.18 364.27 189.32999999999998 364.21 189.48999999999998 364.21C189.61999999999998 364.21 189.73 364.23999999999995 189.82999999999998 364.31C190.79 364.96 191.71999999999997 365.58 192.61999999999998 366.19L183.36999999999998 375.44C182.75999999999996 374.48 182.14999999999998 373.53 181.53999999999996 372.59C181.37999999999997 372.34999999999997 181.41999999999996 372.03 181.61999999999998 371.83ZM200.04 375.41L197.45999999999998 372.83000000000004L196.23999999999998 374.05000000000007L199.17 376.99000000000007C198.67 377.7900000000001 198.10999999999999 378.5400000000001 197.48 379.24000000000007L193.04 374.80000000000007L191.82 376.0200000000001L196.26 380.4600000000001C194.32999999999998 382.2100000000001 191.97 383.5000000000001 189.35 384.1700000000001C189.1 384.24000000000007 188.82999999999998 384.13000000000005 188.69 383.9100000000001C187.2 381.49000000000007 185.75 379.18000000000006 184.32999999999998 376.94000000000005L194.08999999999997 367.1700000000001C196.67 368.9000000000001 198.99999999999997 370.43000000000006 200.90999999999997 371.69000000000005C201.11999999999998 371.83000000000004 201.22999999999996 372.1000000000001 201.15999999999997 372.34000000000003C200.88999999999996 373.41 200.50999999999996 374.44000000000005 200.03999999999996 375.41Z " fill="#365e8d" fill-opacity="1" transform="matrix(1,0,0,1,-170.88497225864228,-353.84999999999997)"></path><path id="SvgjsPath1029" d="M190.8 362.88C190.42000000000002 362.62 189.96 362.48 189.49 362.48C188.87 362.48 188.28 362.72 187.84 363.16L186.45000000000002 364.56L176.64000000000001 354.75C176.16000000000003 354.27 175.52 354 174.83 354C174.14000000000001 354 173.5 354.27 173.02 354.75L171.75 356.02C171.27 356.5 171 357.14 171 357.83C171 358.52 171.27 359.15999999999997 171.75 359.64L181.56 369.45L180.4 370.61C179.62 371.38 179.49 372.61 180.09 373.53000000000003C182.41 377.13000000000005 184.75 380.82000000000005 187.22 384.82000000000005C187.65 385.50000000000006 188.41 385.9200000000001 189.21 385.9200000000001C189.4 385.9200000000001 189.59 385.9000000000001 189.78 385.8500000000001C196.2 384.2000000000001 201.2 379.19000000000005 202.84 372.7700000000001C203.08 371.8100000000001 202.69 370.7900000000001 201.86 370.2500000000001C198.95000000000002 368.3300000000001 195.06 365.7600000000001 190.8 362.8800000000001ZM172.97 358.42C172.82 358.26 172.73 358.05 172.73 357.83000000000004C172.73 357.61 172.82 357.40000000000003 172.97 357.24000000000007L174.24 355.9700000000001C174.4 355.8200000000001 174.61 355.7300000000001 174.83 355.7300000000001C175.05 355.7300000000001 175.26000000000002 355.82000000000005 175.42000000000002 355.9700000000001L185.23000000000002 365.7800000000001L182.78000000000003 368.2300000000001ZM181.62 371.83L189.07 364.39C189.18 364.27 189.32999999999998 364.21 189.48999999999998 364.21C189.61999999999998 364.21 189.73 364.23999999999995 189.82999999999998 364.31C190.79 364.96 191.71999999999997 365.58 192.61999999999998 366.19L183.36999999999998 375.44C182.75999999999996 374.48 182.14999999999998 373.53 181.53999999999996 372.59C181.37999999999997 372.34999999999997 181.41999999999996 372.03 181.61999999999998 371.83ZM200.04 375.41L197.45999999999998 372.83000000000004L196.23999999999998 374.05000000000007L199.17 376.99000000000007C198.67 377.7900000000001 198.10999999999999 378.5400000000001 197.48 379.24000000000007L193.04 374.80000000000007L191.82 376.0200000000001L196.26 380.4600000000001C194.32999999999998 382.2100000000001 191.97 383.5000000000001 189.35 384.1700000000001C189.1 384.24000000000007 188.82999999999998 384.13000000000005 188.69 383.9100000000001C187.2 381.49000000000007 185.75 379.18000000000006 184.32999999999998 376.94000000000005L194.08999999999997 367.1700000000001C196.67 368.9000000000001 198.99999999999997 370.43000000000006 200.90999999999997 371.69000000000005C201.11999999999998 371.83000000000004 201.22999999999996 372.1000000000001 201.15999999999997 372.34000000000003C200.88999999999996 373.41 200.50999999999996 374.44000000000005 200.03999999999996 375.41Z " fill-opacity="0" fill="#ffffff" stroke-dasharray="0" stroke-linejoin="miter" stroke-linecap="butt" stroke-opacity="1" stroke="#365e8d" stroke-miterlimit="50" stroke-width="0.3" transform="matrix(1,0,0,1,-170.88497225864228,-353.84999999999997)"></path><path id="SvgjsPath1030" d="M199.72 375.24L197.13 372.66L195.91 373.88000000000005L198.85 376.82000000000005C198.35 377.62000000000006 197.78 378.37000000000006 197.16 379.06000000000006L192.71 374.62000000000006L191.49 375.8500000000001L195.94 380.2900000000001C194 382.0400000000001 191.65 383.3300000000001 189.03 384.00000000000006C188.78 384.06000000000006 188.5 383.95000000000005 188.37 383.7300000000001C186.87 381.31000000000006 185.42000000000002 379.01000000000005 184 376.76000000000005L193.76 367.00000000000006C196.34 368.7200000000001 198.67 370.26000000000005 200.57999999999998 371.52000000000004C200.79999999999998 371.66 200.89999999999998 371.92 200.83999999999997 372.17C200.55999999999997 373.24 200.18999999999997 374.27000000000004 199.71999999999997 375.24Z " fill="#ffffff" fill-opacity="1" transform="matrix(1,0,0,1,-170.88497225864228,-353.84999999999997)"></path><path id="SvgjsPath1031" d="M199.72 375.24L197.13 372.66L195.91 373.88000000000005L198.85 376.82000000000005C198.35 377.62000000000006 197.78 378.37000000000006 197.16 379.06000000000006L192.71 374.62000000000006L191.49 375.8500000000001L195.94 380.2900000000001C194 382.0400000000001 191.65 383.3300000000001 189.03 384.00000000000006C188.78 384.06000000000006 188.5 383.95000000000005 188.37 383.7300000000001C186.87 381.31000000000006 185.42000000000002 379.01000000000005 184 376.76000000000005L193.76 367.00000000000006C196.34 368.7200000000001 198.67 370.26000000000005 200.57999999999998 371.52000000000004C200.79999999999998 371.66 200.89999999999998 371.92 200.83999999999997 372.17C200.55999999999997 373.24 200.18999999999997 374.27000000000004 199.71999999999997 375.24Z " fill-opacity="0" fill="#ffffff" stroke-dasharray="0" stroke-linejoin="miter" stroke-linecap="butt" stroke-opacity="1" stroke="#6faaff" stroke-miterlimit="50" stroke-width="3.799999952316284" clip-path="url(&quot;#SvgjsClipPath1033&quot;)" transform="matrix(1,0,0,1,-170.88497225864228,-353.84999999999997)"></path></svg>