<svg id="SvgjsSvg1034" xmlns="http://www.w3.org/2000/svg" version="1.1" xmlns:xlink="http://www.w3.org/1999/xlink" xmlns:svgjs="http://svgjs.com/svgjs" width="36.951728105090865" height="28.611421434974318" viewBox="0 0 36.951728105090865 28.611421434974318"><title>Shape</title><desc>Created with Avocode.</desc><defs id="SvgjsDefs1035"><clipPath id="SvgjsClipPath1041"><path id="SvgjsPath1040" d="M304.01484 383.83932L304.01484 356.16067999999996L326.98515 356.16067999999996L326.98515 383.83931999999993ZM312.89 367.34C312.76 367.45 312.64 367.57 312.52 367.69C312.24 367.96 311.96999999999997 368.25 311.72999999999996 368.54C310.09 370.54 309.42999999999995 372.81 309.15999999999997 374.40000000000003C309.15 374.47 309.13 374.55 309.11999999999995 374.62000000000006C309.05999999999995 375.0300000000001 309.03 375.38000000000005 309.00999999999993 375.6700000000001C309.04999999999995 375.63000000000005 309.0899999999999 375.5900000000001 309.12999999999994 375.55000000000007C309.0899999999999 375.6000000000001 309.04999999999995 375.6500000000001 308.99999999999994 375.69000000000005C308.99999999999994 375.71000000000004 308.99999999999994 375.74000000000007 308.99999999999994 375.76000000000005C309.24999999999994 375.75000000000006 309.56999999999994 375.74000000000007 309.91999999999996 375.72C309.94999999999993 375.72 309.98999999999995 375.71000000000004 310.02 375.71000000000004C311.66999999999996 375.58000000000004 314.21 375.1 316.5 373.48C316.77 373.29 317.03 373.08000000000004 317.29 372.85C317.45000000000005 372.71000000000004 317.61 372.57000000000005 317.77000000000004 372.42C317.83000000000004 372.36 317.88000000000005 372.3 317.94000000000005 372.24C320.83000000000004 369.29 321.51000000000005 365.54 321.6600000000001 364C320.0700000000001 364.06 316.36000000000007 364.5 313.24000000000007 367.04C313.13000000000005 367.14000000000004 313.01000000000005 367.23 312.89000000000004 367.34000000000003Z " fill="#ffffff"></path></clipPath><clipPath id="SvgjsClipPath1045"><path id="SvgjsPath1044" d="M290.03343 383.43101L290.03343 356.569L312.96657 356.569L312.96657 383.43101ZM295 364C295.16 365.54 295.83 369.3 298.72 372.24C298.78000000000003 372.3 298.83000000000004 372.36 298.89000000000004 372.42C299.04 372.57 299.20000000000005 372.71000000000004 299.36000000000007 372.85C299.62000000000006 373.08000000000004 299.89000000000004 373.29 300.1600000000001 373.48C302.44000000000005 375.1 304.9800000000001 375.58000000000004 306.6300000000001 375.71000000000004C306.67000000000013 375.71000000000004 306.7000000000001 375.72 306.7400000000001 375.72C307.09000000000015 375.74 307.40000000000015 375.75 307.65000000000015 375.75C307.65000000000015 375.73 307.65000000000015 375.71 307.65000000000015 375.69C307.6100000000001 375.64 307.57000000000016 375.6 307.53000000000014 375.55C307.57000000000016 375.59000000000003 307.6100000000001 375.63 307.65000000000015 375.66C307.63000000000017 375.38000000000005 307.59000000000015 375.03000000000003 307.53000000000014 374.62C307.52000000000015 374.55 307.51000000000016 374.47 307.4900000000001 374.4C307.22000000000014 372.81 306.5600000000001 370.53 304.9300000000001 368.53999999999996C304.6900000000001 368.24999999999994 304.42000000000013 367.96 304.1300000000001 367.68999999999994C304.0100000000001 367.56999999999994 303.9000000000001 367.44999999999993 303.7700000000001 367.3399999999999C303.6500000000001 367.2299999999999 303.5300000000001 367.13999999999993 303.4100000000001 367.0399999999999C300.2900000000001 364.4999999999999 296.5900000000001 364.0599999999999 295.00000000000006 363.9999999999999Z " fill="#ffffff"></path></clipPath></defs><path id="SvgjsPath1036" d="M319.22 372.3C322.8 368.2 322.85 363.18 322.85 362.96000000000004L322.85 362.3L322.18 362.26C322.18 362.26 322.06 362.25 321.82 362.25C320.56 362.25 316.49 362.47 312.84999999999997 365.03C312.14 359.9 308.65 356.59999999999997 308.48999999999995 356.45L307.99999999999994 356L307.50999999999993 356.45C307.3499999999999 356.59999999999997 303.85999999999996 359.9 303.1499999999999 365.03C299.50999999999993 362.46999999999997 295.43999999999994 362.25 294.1799999999999 362.25C293.9499999999999 362.25 293.8199999999999 362.26 293.8199999999999 362.26L293.14999999999986 362.3L293.14999999999986 362.96000000000004C293.14999999999986 363.18000000000006 293.1999999999999 368.20000000000005 296.77999999999986 372.3C294.20999999999987 373.14 292.57999999999987 374.62 292.48999999999984 374.71000000000004L291.99999999999983 375.16L292.42999999999984 375.67C292.54999999999984 375.81 295.48999999999984 379.19 300.22999999999985 379.59000000000003C300.49999999999983 379.61 300.76999999999987 379.62 301.02999999999986 379.62C302.14999999999986 379.62 303.16999999999985 379.43 304.07999999999987 379.15C304.0499999999999 379.29999999999995 304.01999999999987 379.46 304.0099999999999 379.63C303.8799999999999 382.23 307.5599999999999 383.82 307.71999999999986 383.88L307.99999999999983 384L308.2799999999998 383.88C308.4399999999998 383.82 312.1199999999998 382.23 311.9899999999998 379.63C311.9799999999998 379.46 311.94999999999976 379.3 311.9199999999998 379.15C312.8299999999998 379.42999999999995 313.8499999999998 379.62 314.9699999999998 379.62C315.2299999999998 379.62 315.4999999999998 379.61 315.7699999999998 379.59000000000003C320.5099999999998 379.19000000000005 323.4499999999998 375.81000000000006 323.5699999999998 375.67L323.99999999999983 375.16L323.5099999999998 374.71000000000004C323.41999999999985 374.62000000000006 321.7899999999998 373.14000000000004 319.2199999999998 372.3ZM304.47 366.09C304.74 362.10999999999996 306.99 359.13 308 357.97999999999996C309.01 359.12999999999994 311.27 362.10999999999996 311.53 366.09C309.63 367.81 308.58 369.86999999999995 308 371.66999999999996C307.42 369.86999999999995 306.37 367.80999999999995 304.47 366.09ZM305.73 376.72C305.57 376.85 305.42 376.99 305.27000000000004 377.14000000000004C304.16 377.71000000000004 302.71000000000004 378.23 301.03000000000003 378.23C300.81 378.23 300.58000000000004 378.22 300.35 378.20000000000005C297.26000000000005 377.94000000000005 294.98 376.1700000000001 294.02000000000004 375.28000000000003C294.74000000000007 374.75000000000006 296.12000000000006 373.89000000000004 297.90000000000003 373.43C300.50000000000006 375.76 303.63000000000005 376.5 305.73 376.72ZM308 382.47C307.06 382.01000000000005 305.37 380.92 305.43 379.70000000000005C305.46 379.19000000000005 305.74 378.70000000000005 306.13 378.28000000000003C306.65 377.70000000000005 307.36 377.22 307.88 376.93C307.92 376.96 307.96 376.99 308 377.03000000000003C308.04 376.99 308.08 376.96000000000004 308.12 376.93C308.64 377.22 309.35 377.7 309.87 378.28000000000003C310.26 378.70000000000005 310.54 379.19000000000005 310.57 379.70000000000005C310.63 380.9200000000001 308.94 382.01000000000005 308 382.47ZM318.1 373.43C319.88 373.90000000000003 321.26000000000005 374.76 321.98 375.28000000000003C321.02000000000004 376.17 318.76 377.94000000000005 315.65000000000003 378.20000000000005C315.42 378.22 315.19000000000005 378.23 314.97 378.23C313.29 378.23 311.83000000000004 377.71000000000004 310.72 377.13C310.58000000000004 376.99 310.43 376.85 310.27000000000004 376.71999999999997C312.37000000000006 376.49999999999994 315.49000000000007 375.76 318.1 373.42999999999995Z " fill="#365e8d" fill-opacity="1" transform="matrix(1,0,0,1,-290.03342820908324,-355.69428928251284)"></path><path id="SvgjsPath1037" d="M319.22 372.3C322.8 368.2 322.85 363.18 322.85 362.96000000000004L322.85 362.3L322.18 362.26C322.18 362.26 322.06 362.25 321.82 362.25C320.56 362.25 316.49 362.47 312.84999999999997 365.03C312.14 359.9 308.65 356.59999999999997 308.48999999999995 356.45L307.99999999999994 356L307.50999999999993 356.45C307.3499999999999 356.59999999999997 303.85999999999996 359.9 303.1499999999999 365.03C299.50999999999993 362.46999999999997 295.43999999999994 362.25 294.1799999999999 362.25C293.9499999999999 362.25 293.8199999999999 362.26 293.8199999999999 362.26L293.14999999999986 362.3L293.14999999999986 362.96000000000004C293.14999999999986 363.18000000000006 293.1999999999999 368.20000000000005 296.77999999999986 372.3C294.20999999999987 373.14 292.57999999999987 374.62 292.48999999999984 374.71000000000004L291.99999999999983 375.16L292.42999999999984 375.67C292.54999999999984 375.81 295.48999999999984 379.19 300.22999999999985 379.59000000000003C300.49999999999983 379.61 300.76999999999987 379.62 301.02999999999986 379.62C302.14999999999986 379.62 303.16999999999985 379.43 304.07999999999987 379.15C304.0499999999999 379.29999999999995 304.01999999999987 379.46 304.0099999999999 379.63C303.8799999999999 382.23 307.5599999999999 383.82 307.71999999999986 383.88L307.99999999999983 384L308.2799999999998 383.88C308.4399999999998 383.82 312.1199999999998 382.23 311.9899999999998 379.63C311.9799999999998 379.46 311.94999999999976 379.3 311.9199999999998 379.15C312.8299999999998 379.42999999999995 313.8499999999998 379.62 314.9699999999998 379.62C315.2299999999998 379.62 315.4999999999998 379.61 315.7699999999998 379.59000000000003C320.5099999999998 379.19000000000005 323.4499999999998 375.81000000000006 323.5699999999998 375.67L323.99999999999983 375.16L323.5099999999998 374.71000000000004C323.41999999999985 374.62000000000006 321.7899999999998 373.14000000000004 319.2199999999998 372.3ZM304.47 366.09C304.74 362.10999999999996 306.99 359.13 308 357.97999999999996C309.01 359.12999999999994 311.27 362.10999999999996 311.53 366.09C309.63 367.81 308.58 369.86999999999995 308 371.66999999999996C307.42 369.86999999999995 306.37 367.80999999999995 304.47 366.09ZM305.73 376.72C305.57 376.85 305.42 376.99 305.27000000000004 377.14000000000004C304.16 377.71000000000004 302.71000000000004 378.23 301.03000000000003 378.23C300.81 378.23 300.58000000000004 378.22 300.35 378.20000000000005C297.26000000000005 377.94000000000005 294.98 376.1700000000001 294.02000000000004 375.28000000000003C294.74000000000007 374.75000000000006 296.12000000000006 373.89000000000004 297.90000000000003 373.43C300.50000000000006 375.76 303.63000000000005 376.5 305.73 376.72ZM308 382.47C307.06 382.01000000000005 305.37 380.92 305.43 379.70000000000005C305.46 379.19000000000005 305.74 378.70000000000005 306.13 378.28000000000003C306.65 377.70000000000005 307.36 377.22 307.88 376.93C307.92 376.96 307.96 376.99 308 377.03000000000003C308.04 376.99 308.08 376.96000000000004 308.12 376.93C308.64 377.22 309.35 377.7 309.87 378.28000000000003C310.26 378.70000000000005 310.54 379.19000000000005 310.57 379.70000000000005C310.63 380.9200000000001 308.94 382.01000000000005 308 382.47ZM318.1 373.43C319.88 373.90000000000003 321.26000000000005 374.76 321.98 375.28000000000003C321.02000000000004 376.17 318.76 377.94000000000005 315.65000000000003 378.20000000000005C315.42 378.22 315.19000000000005 378.23 314.97 378.23C313.29 378.23 311.83000000000004 377.71000000000004 310.72 377.13C310.58000000000004 376.99 310.43 376.85 310.27000000000004 376.71999999999997C312.37000000000006 376.49999999999994 315.49000000000007 375.76 318.1 373.42999999999995Z " fill-opacity="0" fill="#ffffff" stroke-dasharray="0" stroke-linejoin="miter" stroke-linecap="butt" stroke-opacity="1" stroke="#365e8d" stroke-miterlimit="50" stroke-width="0.5" transform="matrix(1,0,0,1,-290.03342820908324,-355.69428928251284)"></path><path id="SvgjsPath1038" d="M313.24 367.04C316.36 364.5 320.07 364.06 321.66 364C321.51000000000005 365.54 320.83000000000004 369.29 317.94 372.24C317.88 372.3 317.83 372.36 317.77 372.42C317.60999999999996 372.57 317.45 372.71000000000004 317.28999999999996 372.85C317.03 373.08000000000004 316.77 373.29 316.49999999999994 373.48C314.2099999999999 375.1 311.66999999999996 375.58000000000004 310.0199999999999 375.71000000000004C309.98999999999995 375.71000000000004 309.94999999999993 375.72 309.9199999999999 375.72C309.5699999999999 375.74 309.2499999999999 375.75 308.9999999999999 375.76000000000005C308.9999999999999 375.74000000000007 308.9999999999999 375.71000000000004 308.9999999999999 375.69000000000005C309.0499999999999 375.65000000000003 309.08999999999986 375.6000000000001 309.1299999999999 375.55000000000007C309.08999999999986 375.5900000000001 309.0499999999999 375.63000000000005 309.0099999999999 375.6700000000001C309.02999999999986 375.38000000000005 309.0599999999999 375.0300000000001 309.1199999999999 374.62000000000006C309.1299999999999 374.55000000000007 309.14999999999986 374.4700000000001 309.1599999999999 374.40000000000003C309.4299999999999 372.81000000000006 310.0899999999999 370.54 311.7299999999999 368.54C311.9699999999999 368.25 312.2399999999999 367.96000000000004 312.5199999999999 367.69C312.63999999999993 367.57 312.75999999999993 367.45 312.88999999999993 367.34C313.00999999999993 367.22999999999996 313.12999999999994 367.14 313.23999999999995 367.03999999999996Z " fill="#ffffff" fill-opacity="1" transform="matrix(1,0,0,1,-290.03342820908324,-355.69428928251284)"></path><path id="SvgjsPath1039" d="M313.24 367.04C316.36 364.5 320.07 364.06 321.66 364C321.51000000000005 365.54 320.83000000000004 369.29 317.94 372.24C317.88 372.3 317.83 372.36 317.77 372.42C317.60999999999996 372.57 317.45 372.71000000000004 317.28999999999996 372.85C317.03 373.08000000000004 316.77 373.29 316.49999999999994 373.48C314.2099999999999 375.1 311.66999999999996 375.58000000000004 310.0199999999999 375.71000000000004C309.98999999999995 375.71000000000004 309.94999999999993 375.72 309.9199999999999 375.72C309.5699999999999 375.74 309.2499999999999 375.75 308.9999999999999 375.76000000000005C308.9999999999999 375.74000000000007 308.9999999999999 375.71000000000004 308.9999999999999 375.69000000000005C309.0499999999999 375.65000000000003 309.08999999999986 375.6000000000001 309.1299999999999 375.55000000000007C309.08999999999986 375.5900000000001 309.0499999999999 375.63000000000005 309.0099999999999 375.6700000000001C309.02999999999986 375.38000000000005 309.0599999999999 375.0300000000001 309.1199999999999 374.62000000000006C309.1299999999999 374.55000000000007 309.14999999999986 374.4700000000001 309.1599999999999 374.40000000000003C309.4299999999999 372.81000000000006 310.0899999999999 370.54 311.7299999999999 368.54C311.9699999999999 368.25 312.2399999999999 367.96000000000004 312.5199999999999 367.69C312.63999999999993 367.57 312.75999999999993 367.45 312.88999999999993 367.34C313.00999999999993 367.22999999999996 313.12999999999994 367.14 313.23999999999995 367.03999999999996Z " fill-opacity="0" fill="#ffffff" stroke-dasharray="0" stroke-linejoin="miter" stroke-linecap="butt" stroke-opacity="1" stroke="#6faaff" stroke-miterlimit="50" stroke-width="3.4" clip-path="url(&quot;#SvgjsClipPath1041&quot;)" transform="matrix(1,0,0,1,-290.03342820908324,-355.69428928251284)"></path><path id="SvgjsPath1042" d="M303.41 367.04C303.53000000000003 367.14000000000004 303.65000000000003 367.23 303.77000000000004 367.34000000000003C303.90000000000003 367.45000000000005 304.01000000000005 367.57000000000005 304.13000000000005 367.69000000000005C304.4200000000001 367.96000000000004 304.69000000000005 368.25000000000006 304.93000000000006 368.5400000000001C306.56000000000006 370.5300000000001 307.2200000000001 372.81000000000006 307.49000000000007 374.4000000000001C307.51000000000005 374.4700000000001 307.52000000000004 374.55000000000007 307.5300000000001 374.6200000000001C307.5900000000001 375.03000000000014 307.6300000000001 375.3800000000001 307.6500000000001 375.66000000000014C307.61000000000007 375.63000000000017 307.5700000000001 375.59000000000015 307.5300000000001 375.5500000000001C307.5700000000001 375.60000000000014 307.61000000000007 375.6400000000001 307.6500000000001 375.6900000000001C307.6500000000001 375.7100000000001 307.6500000000001 375.73000000000013 307.6500000000001 375.7500000000001C307.4000000000001 375.7500000000001 307.0900000000001 375.7400000000001 306.74000000000007 375.72000000000014C306.70000000000005 375.72000000000014 306.6700000000001 375.71000000000015 306.63000000000005 375.71000000000015C304.9800000000001 375.58000000000015 302.44000000000005 375.10000000000014 300.16 373.48000000000013C299.89000000000004 373.29000000000013 299.62 373.08000000000015 299.36 372.85000000000014C299.2 372.71000000000015 299.04 372.57000000000016 298.89 372.42000000000013C298.83 372.3600000000001 298.78 372.3000000000001 298.71999999999997 372.2400000000001C295.83 369.3000000000001 295.15999999999997 365.54000000000013 294.99999999999994 364.0000000000001C296.5899999999999 364.0600000000001 300.28999999999996 364.5000000000001 303.40999999999997 367.04000000000013Z " fill="#ffffff" fill-opacity="1" transform="matrix(1,0,0,1,-290.03342820908324,-355.69428928251284)"></path><path id="SvgjsPath1043" d="M303.41 367.04C303.53000000000003 367.14000000000004 303.65000000000003 367.23 303.77000000000004 367.34000000000003C303.90000000000003 367.45000000000005 304.01000000000005 367.57000000000005 304.13000000000005 367.69000000000005C304.4200000000001 367.96000000000004 304.69000000000005 368.25000000000006 304.93000000000006 368.5400000000001C306.56000000000006 370.5300000000001 307.2200000000001 372.81000000000006 307.49000000000007 374.4000000000001C307.51000000000005 374.4700000000001 307.52000000000004 374.55000000000007 307.5300000000001 374.6200000000001C307.5900000000001 375.03000000000014 307.6300000000001 375.3800000000001 307.6500000000001 375.66000000000014C307.61000000000007 375.63000000000017 307.5700000000001 375.59000000000015 307.5300000000001 375.5500000000001C307.5700000000001 375.60000000000014 307.61000000000007 375.6400000000001 307.6500000000001 375.6900000000001C307.6500000000001 375.7100000000001 307.6500000000001 375.73000000000013 307.6500000000001 375.7500000000001C307.4000000000001 375.7500000000001 307.0900000000001 375.7400000000001 306.74000000000007 375.72000000000014C306.70000000000005 375.72000000000014 306.6700000000001 375.71000000000015 306.63000000000005 375.71000000000015C304.9800000000001 375.58000000000015 302.44000000000005 375.10000000000014 300.16 373.48000000000013C299.89000000000004 373.29000000000013 299.62 373.08000000000015 299.36 372.85000000000014C299.2 372.71000000000015 299.04 372.57000000000016 298.89 372.42000000000013C298.83 372.3600000000001 298.78 372.3000000000001 298.71999999999997 372.2400000000001C295.83 369.3000000000001 295.15999999999997 365.54000000000013 294.99999999999994 364.0000000000001C296.5899999999999 364.0600000000001 300.28999999999996 364.5000000000001 303.40999999999997 367.04000000000013Z " fill-opacity="0" fill="#ffffff" stroke-dasharray="0" stroke-linejoin="miter" stroke-linecap="butt" stroke-opacity="1" stroke="#6faaff" stroke-miterlimit="50" stroke-width="3.4" clip-path="url(&quot;#SvgjsClipPath1045&quot;)" transform="matrix(1,0,0,1,-290.03342820908324,-355.69428928251284)"></path><path id="SvgjsPath1046" d="M310.14 379.77C310.2 380.99 308.51 382.08 307.57 382.53999999999996C306.63 382.08 304.94 380.98999999999995 305 379.77C305.03 379.26 305.31 378.77 305.7 378.34999999999997C306.21999999999997 377.77 306.93 377.28999999999996 307.45 376.99999999999994C307.49 377.0299999999999 307.53 377.05999999999995 307.57 377.09999999999997C307.61 377.05999999999995 307.65 377.03 307.69 376.99999999999994C308.21 377.28999999999996 308.92 377.7699999999999 309.44 378.34999999999997C309.83 378.77 310.11 379.26 310.14 379.77Z " fill="#ffffff" fill-opacity="1" transform="matrix(1,0,0,1,-290.03342820908324,-355.69428928251284)"></path><path id="SvgjsPath1047" d="M310.14 379.77C310.2 380.99 308.51 382.08 307.57 382.53999999999996C306.63 382.08 304.94 380.98999999999995 305 379.77C305.03 379.26 305.31 378.77 305.7 378.34999999999997C306.21999999999997 377.77 306.93 377.28999999999996 307.45 376.99999999999994C307.49 377.0299999999999 307.53 377.05999999999995 307.57 377.09999999999997C307.61 377.05999999999995 307.65 377.03 307.69 376.99999999999994C308.21 377.28999999999996 308.92 377.7699999999999 309.44 378.34999999999997C309.83 378.77 310.11 379.26 310.14 379.77Z " fill-opacity="0" fill="#ffffff" stroke-dasharray="0" stroke-linejoin="miter" stroke-linecap="butt" stroke-opacity="1" stroke="#365e8d" stroke-miterlimit="50" stroke-width="0.5" transform="matrix(1,0,0,1,-290.03342820908324,-355.69428928251284)"></path></svg>