<svg id="SvgjsSvg1068" xmlns="http://www.w3.org/2000/svg" version="1.1" xmlns:xlink="http://www.w3.org/1999/xlink" xmlns:svgjs="http://svgjs.com/svgjs" width="19.200000000000045" height="32.10000000000002" viewBox="0 0 19.200000000000045 32.10000000000002"><title>Fill 1</title><desc>Created with Avocode.</desc><defs id="SvgjsDefs1069"></defs><path id="SvgjsPath1070" d="M316.29 464L312.53000000000003 464C311.69000000000005 464 311.00000000000006 464.68 311.00000000000006 465.53L311.00000000000006 471.47999999999996L314.4700000000001 471.47999999999996L314.4700000000001 467.14L316.2900000000001 467.14C317.1600000000001 467.14 317.86000000000007 466.44 317.86000000000007 465.57C317.86000000000007 464.7 317.1600000000001 464 316.2900000000001 464Z " fill="#ffffff" fill-opacity="1" transform="matrix(1,0,0,1,-302.9,-463)"></path><path id="SvgjsPath1071" d="M309.9 472C309.4 472 309 471.62 309 471.16L309 465.34000000000003C309 464.05 310.12 463.00000000000006 311.51 463.00000000000006L315.45 463.00000000000006C316.86 463.00000000000006 318 464.07000000000005 318 465.38000000000005C318 466.69000000000005 316.86 467.76000000000005 315.45 467.76000000000005L314.45 467.76000000000005L314.45 471.16C314.45 471.62 314.03999999999996 472 313.55 472ZM310.8 470.32L312.64 470.32L312.64 466.92C312.64 466.45 313.05 466.08000000000004 313.55 466.08000000000004L315.45 466.08000000000004C315.86 466.08000000000004 316.2 465.76000000000005 316.2 465.38000000000005C316.2 464.99000000000007 315.86 464.68000000000006 315.45 464.68000000000006L311.51 464.68000000000006C311.12 464.68000000000006 310.8 464.9800000000001 310.8 465.3400000000001Z " fill="#365e8d" fill-opacity="1" transform="matrix(1,0,0,1,-302.9,-463)"></path><path id="SvgjsPath1072" d="M318.88 495L306.12 495C304.4 495 303 493.6 303 491.89L303 481.5C303 476.26 307.26 472 312.5 472C312.98 472 313.36 472.39 313.36 472.86C313.36 473.34000000000003 312.98 473.72 312.5 473.72C308.21 473.72 304.72 477.21000000000004 304.72 481.5L304.72 491.89C304.72 492.65 305.35 493.28 306.12 493.28L318.88 493.28C319.65 493.28 320.28 492.65 320.28 491.89L320.28 481.5C320.28 480.6 320.13 479.71 319.83 478.88C319.66999999999996 478.43 319.9 477.94 320.34999999999997 477.77C320.78999999999996 477.60999999999996 321.28999999999996 477.84999999999997 321.45 478.28999999999996C321.81 479.31999999999994 322 480.4 322 481.49999999999994L322 491.88999999999993C322 493.5999999999999 320.6 494.99999999999994 318.88 494.99999999999994Z " fill="#365e8d" fill-opacity="1" transform="matrix(1,0,0,1,-302.9,-463)"></path><path id="SvgjsPath1073" d="M318.88 495L306.12 495C304.4 495 303 493.6 303 491.89L303 481.5C303 476.26 307.26 472 312.5 472C312.98 472 313.36 472.39 313.36 472.86C313.36 473.34000000000003 312.98 473.72 312.5 473.72C308.21 473.72 304.72 477.21000000000004 304.72 481.5L304.72 491.89C304.72 492.65 305.35 493.28 306.12 493.28L318.88 493.28C319.65 493.28 320.28 492.65 320.28 491.89L320.28 481.5C320.28 480.6 320.13 479.71 319.83 478.88C319.66999999999996 478.43 319.9 477.94 320.34999999999997 477.77C320.78999999999996 477.60999999999996 321.28999999999996 477.84999999999997 321.45 478.28999999999996C321.81 479.31999999999994 322 480.4 322 481.49999999999994L322 491.88999999999993C322 493.5999999999999 320.6 494.99999999999994 318.88 494.99999999999994Z " fill-opacity="0" fill="#ffffff" stroke-dasharray="0" stroke-linejoin="miter" stroke-linecap="butt" stroke-opacity="1" stroke="#365e8d" stroke-miterlimit="50" stroke-width="0.2" transform="matrix(1,0,0,1,-302.9,-463)"></path><path id="SvgjsPath1074" d="M312.06 472.8C313.95 472.8 315.7 473.41 317.12 474.44L317.12 470L307 470L307 474.44C308.42 473.41 310.17 472.8 312.06 472.8Z " fill="#ffffff" fill-opacity="1" transform="matrix(1,0,0,1,-302.9,-463)"></path><path id="SvgjsPath1075" d="M316.62 474.84C315.27 473.9 313.67 473.4 312 473.4C310.33 473.4 308.73 473.9 307.38 474.84C307.12 475.03 306.77 475.04999999999995 306.48 474.90999999999997C306.18 474.77 306 474.47999999999996 306 474.15999999999997L306 469.84C306 469.36999999999995 306.39 469 306.87 469L317.13 469C317.61 469 318 469.37 318 469.84L318 474.15999999999997C318 474.47999999999996 317.82 474.77 317.52 474.90999999999997C317.4 474.96999999999997 317.26 474.99999999999994 317.13 474.99999999999994C316.95 474.99999999999994 316.77 474.94999999999993 316.62 474.8399999999999ZM316.26 472.68L316.26 470.67L307.74 470.67L307.74 472.68C309.06 472.05 310.5 471.73 312 471.73C313.5 471.73 314.94 472.06 316.26 472.68Z " fill="#365e8d" fill-opacity="1" transform="matrix(1,0,0,1,-302.9,-463)"></path><path id="SvgjsPath1076" d="M308.56 488.11C306.48 486.03000000000003 306.48 482.65000000000003 308.56 480.56C309.57 479.56 310.91 479 312.34 479C313.76 479 315.09999999999997 479.55 316.10999999999996 480.56C318.18999999999994 482.65 318.18999999999994 486.03000000000003 316.10999999999996 488.11C315.09999999999997 489.12 313.75999999999993 489.68 312.34 489.68C310.90999999999997 489.68 309.57 489.12 308.56 488.11ZM309.78 481.78C308.35999999999996 483.19 308.35999999999996 485.48999999999995 309.78 486.9C310.46 487.58 311.36999999999995 487.96 312.34 487.96C313.29999999999995 487.96 314.21 487.58 314.9 486.9C316.31 485.48999999999995 316.31 483.19 314.9 481.78C314.21 481.09 313.29999999999995 480.71999999999997 312.34 480.71999999999997C311.36999999999995 480.71999999999997 310.46 481.09 309.78 481.78Z " fill="#6faaff" fill-opacity="1" transform="matrix(1,0,0,1,-302.9,-463)"></path><path id="SvgjsPath1077" d="M308.86 487.79C308.64 487.79 308.42 487.71000000000004 308.25 487.54C307.92 487.21000000000004 307.92 486.66 308.25 486.33000000000004L311.33 483.25000000000006C311.65999999999997 482.9200000000001 312.21 482.9200000000001 312.53999999999996 483.25000000000006C312.87999999999994 483.59000000000003 312.87999999999994 484.13000000000005 312.53999999999996 484.4700000000001L309.46999999999997 487.5400000000001C309.29999999999995 487.7100000000001 309.08 487.7900000000001 308.85999999999996 487.7900000000001Z " fill="#6faaff" fill-opacity="1" transform="matrix(1,0,0,1,-302.9,-463)"></path><path id="SvgjsPath1078" d="M314.86 482.84C314.64 482.84 314.42 482.76 314.25 482.59C313.92 482.25 313.92 481.71 314.25 481.38L315.38 480.25C315.71 479.92 316.25 479.92 316.59 480.25C316.92999999999995 480.59 316.92999999999995 481.13 316.59 481.47L315.46999999999997 482.59000000000003C315.29999999999995 482.76000000000005 315.08 482.84000000000003 314.85999999999996 482.84000000000003Z " fill="#6faaff" fill-opacity="1" transform="matrix(1,0,0,1,-302.9,-463)"></path></svg>