<svg id="SvgjsSvg1086" xmlns="http://www.w3.org/2000/svg" version="1.1" xmlns:xlink="http://www.w3.org/1999/xlink" xmlns:svgjs="http://svgjs.com/svgjs" width="42" height="24" viewBox="0 0 42 24"><title>Rectangle 30</title><desc>Created with Avocode.</desc><defs id="SvgjsDefs1087"><clipPath id="SvgjsClipPath1090"><path id="SvgjsPath1089" d="M175 589C175 587.89543 175.89543 587 177 587L181 587C182.10457 587 183 587.89543 183 589L183 609C183 610.10457 182.10457 611 181 611L177 611C175.89543 611 175 610.10457 175 609Z " fill="#ffffff"></path></clipPath><clipPath id="SvgjsClipPath1093"><path id="SvgjsPath1092" d="M171 594.54545C171 593.69192 171.69192 593 172.54545 593L173.45453999999998 593C174.30807 593 174.99998999999997 593.69192 174.99998999999997 594.54545L174.99998999999997 603.45454C174.99998999999997 604.3080699999999 174.30806999999996 604.9999899999999 173.45453999999998 604.9999899999999L172.54545 604.9999899999999C171.69191999999998 604.9999899999999 171 604.3080699999999 171 603.45454Z " fill="#ffffff"></path></clipPath><clipPath id="SvgjsClipPath1096"><path id="SvgjsPath1095" d="M193 609C193 610.10457 193.89543 611 195 611L199 611C200.10457 611 201 610.10457 201 609L201 589C201 587.89543 200.10457 587 199 587L195 587C193.89543 587 193 587.89543 193 589Z " fill="#ffffff"></path></clipPath><clipPath id="SvgjsClipPath1099"><path id="SvgjsPath1098" d="M202 603.45455C202 604.30808 202.69192 605 203.54545 605L204.45453999999998 605C205.30807 605 205.99998999999997 604.30808 205.99998999999997 603.45455L205.99998999999997 594.54546C205.99998999999997 593.6919300000001 205.30806999999996 593.0000100000001 204.45453999999998 593.0000100000001L203.54545 593.0000100000001C202.69191999999998 593.0000100000001 202 593.6919300000001 202 594.54546Z " fill="#ffffff"></path></clipPath></defs><path id="SvgjsPath1088" d="M175 589C175 587.89543 175.89543 587 177 587L181 587C182.10457 587 183 587.89543 183 589L183 609C183 610.10457 182.10457 611 181 611L177 611C175.89543 611 175 610.10457 175 609Z " fill-opacity="0" fill="#ffffff" stroke-dasharray="0" stroke-linejoin="miter" stroke-linecap="butt" stroke-opacity="1" stroke="#365e8d" stroke-miterlimit="50" stroke-width="4" clip-path="url(&quot;#SvgjsClipPath1090&quot;)" transform="matrix(1,0,0,1,-167,-587)"></path><path id="SvgjsPath1091" d="M171 594.54545C171 593.69192 171.69192 593 172.54545 593L173.45453999999998 593C174.30807 593 174.99998999999997 593.69192 174.99998999999997 594.54545L174.99998999999997 603.45454C174.99998999999997 604.3080699999999 174.30806999999996 604.9999899999999 173.45453999999998 604.9999899999999L172.54545 604.9999899999999C171.69191999999998 604.9999899999999 171 604.3080699999999 171 603.45454Z " fill-opacity="0" fill="#ffffff" stroke-dasharray="0" stroke-linejoin="miter" stroke-linecap="butt" stroke-opacity="1" stroke="#6faaff" stroke-miterlimit="50" stroke-width="4" clip-path="url(&quot;#SvgjsClipPath1093&quot;)" transform="matrix(1,0,0,1,-167,-587)"></path><path id="SvgjsPath1094" d="M193 609C193 610.10457 193.89543 611 195 611L199 611C200.10457 611 201 610.10457 201 609L201 589C201 587.89543 200.10457 587 199 587L195 587C193.89543 587 193 587.89543 193 589Z " fill-opacity="0" fill="#ffffff" stroke-dasharray="0" stroke-linejoin="miter" stroke-linecap="butt" stroke-opacity="1" stroke="#365e8d" stroke-miterlimit="50" stroke-width="4" clip-path="url(&quot;#SvgjsClipPath1096&quot;)" transform="matrix(1,0,0,1,-167,-587)"></path><path id="SvgjsPath1097" d="M202 603.45455C202 604.30808 202.69192 605 203.54545 605L204.45453999999998 605C205.30807 605 205.99998999999997 604.30808 205.99998999999997 603.45455L205.99998999999997 594.54546C205.99998999999997 593.6919300000001 205.30806999999996 593.0000100000001 204.45453999999998 593.0000100000001L203.54545 593.0000100000001C202.69191999999998 593.0000100000001 202 593.6919300000001 202 594.54546Z " fill-opacity="0" fill="#ffffff" stroke-dasharray="0" stroke-linejoin="miter" stroke-linecap="butt" stroke-opacity="1" stroke="#6faaff" stroke-miterlimit="50" stroke-width="4" clip-path="url(&quot;#SvgjsClipPath1099&quot;)" transform="matrix(1,0,0,1,-167,-587)"></path><path id="SvgjsPath1100" d="M182 599L192.82 599 " fill-opacity="0" fill="#ffffff" stroke-dasharray="0" stroke-linejoin="miter" stroke-linecap="square" stroke-opacity="1" stroke="#365e8d" stroke-miterlimit="50" stroke-width="2" transform="matrix(1,0,0,1,-167,-587)"></path><path id="SvgjsPath1101" d="M169.55 599L168 599 " fill-opacity="0" fill="#ffffff" stroke-dasharray="0" stroke-linejoin="round" stroke-linecap="square" stroke-opacity="1" stroke="#365e8d" stroke-miterlimit="50" stroke-width="2" transform="matrix(1,0,0,1,-167,-587)"></path><path id="SvgjsPath1102" d="M206 599L207.55 599 " fill-opacity="0" fill="#ffffff" stroke-dasharray="0" stroke-linejoin="miter" stroke-linecap="square" stroke-opacity="1" stroke="#365e8d" stroke-miterlimit="50" stroke-width="2" transform="matrix(1,0,0,1,-167,-587)"></path></svg>