<svg id="SvgjsSvg1103" xmlns="http://www.w3.org/2000/svg" version="1.1" xmlns:xlink="http://www.w3.org/1999/xlink" xmlns:svgjs="http://svgjs.com/svgjs" width="41.25" height="25.375" viewBox="0 0 41.25 25.375"><title>Shape</title><desc>Created with Avocode.</desc><defs id="SvgjsDefs1104"></defs><path id="SvgjsPath1105" d="M324.17 605.3C323.52000000000004 605.9399999999999 323.15000000000003 606.77 323.15000000000003 607.66C323.15000000000003 608.55 323.51000000000005 609.38 324.17 610.02C324.83000000000004 610.65 325.68 611 326.59000000000003 611C328.45000000000005 611 329.97 609.5 329.97 607.66C329.97 605.8199999999999 328.45000000000005 604.3199999999999 326.59000000000003 604.3199999999999C325.68 604.3199999999999 324.82000000000005 604.67 324.17 605.3ZM305.67 605.3C305.02000000000004 605.9399999999999 304.65000000000003 606.77 304.65000000000003 607.66C304.65000000000003 608.55 305.01000000000005 609.38 305.67 610.02C306.33000000000004 610.65 307.18 611 308.09000000000003 611C309.95000000000005 611 311.47 609.5 311.47 607.66C311.47 605.8199999999999 309.95000000000005 604.3199999999999 308.09000000000003 604.3199999999999C307.18 604.3199999999999 306.32000000000005 604.67 305.67 605.3ZM326.63 594L323.59 594C323.27 594 323 594.26 323 594.59L323 599.4100000000001C323 599.7400000000001 323.27 600.0000000000001 323.59 600.0000000000001L328.40999999999997 600.0000000000001C328.72999999999996 600.0000000000001 328.99999999999994 599.7400000000001 328.99999999999994 599.4100000000001L328.99999999999994 596.1800000000001C328.99999999999994 596.0200000000001 328.92999999999995 595.86 328.79999999999995 595.7500000000001L327.02 594.1500000000001C326.91999999999996 594.0500000000001 326.78 594.0000000000001 326.63 594.0000000000001ZM324 599L324 595L326.44 595L328 596.39L328 599ZM324.67 607.66C324.67 606.65 325.55 605.8 326.59000000000003 605.8C327.62 605.8 328.45000000000005 606.64 328.45000000000005 607.66C328.45000000000005 608.68 327.62000000000006 609.52 326.59000000000003 609.52C325.55 609.52 324.67 608.67 324.67 607.66ZM306.17 607.66C306.17 606.65 307.05 605.8 308.09000000000003 605.8C309.12 605.8 309.95000000000005 606.64 309.95000000000005 607.66C309.95000000000005 608.68 309.12000000000006 609.52 308.09000000000003 609.52C307.05 609.52 306.17 608.67 306.17 607.66ZM303.04 605.23C303.45000000000005 605.23 303.8 605.57 303.8 605.97C303.8 606.38 303.45 606.72 303.04 606.72L300.76000000000005 606.72C300.34000000000003 606.72 300.00000000000006 606.38 300.00000000000006 605.97L300.00000000000006 603.26C300.00000000000006 602.85 300.34000000000003 602.52 300.76000000000005 602.52C301.1700000000001 602.52 301.52000000000004 602.85 301.52000000000004 603.26L301.52000000000004 605.23Z " fill="#365e8d" fill-opacity="1" transform="matrix(1,0,0,1,-292,-585.875)"></path><path id="SvgjsPath1106" d="M324.17 605.3C323.52000000000004 605.9399999999999 323.15000000000003 606.77 323.15000000000003 607.66C323.15000000000003 608.55 323.51000000000005 609.38 324.17 610.02C324.83000000000004 610.65 325.68 611 326.59000000000003 611C328.45000000000005 611 329.97 609.5 329.97 607.66C329.97 605.8199999999999 328.45000000000005 604.3199999999999 326.59000000000003 604.3199999999999C325.68 604.3199999999999 324.82000000000005 604.67 324.17 605.3ZM305.67 605.3C305.02000000000004 605.9399999999999 304.65000000000003 606.77 304.65000000000003 607.66C304.65000000000003 608.55 305.01000000000005 609.38 305.67 610.02C306.33000000000004 610.65 307.18 611 308.09000000000003 611C309.95000000000005 611 311.47 609.5 311.47 607.66C311.47 605.8199999999999 309.95000000000005 604.3199999999999 308.09000000000003 604.3199999999999C307.18 604.3199999999999 306.32000000000005 604.67 305.67 605.3ZM326.63 594L323.59 594C323.27 594 323 594.26 323 594.59L323 599.4100000000001C323 599.7400000000001 323.27 600.0000000000001 323.59 600.0000000000001L328.40999999999997 600.0000000000001C328.72999999999996 600.0000000000001 328.99999999999994 599.7400000000001 328.99999999999994 599.4100000000001L328.99999999999994 596.1800000000001C328.99999999999994 596.0200000000001 328.92999999999995 595.86 328.79999999999995 595.7500000000001L327.02 594.1500000000001C326.91999999999996 594.0500000000001 326.78 594.0000000000001 326.63 594.0000000000001ZM324 599L324 595L326.44 595L328 596.39L328 599ZM324.67 607.66C324.67 606.65 325.55 605.8 326.59000000000003 605.8C327.62 605.8 328.45000000000005 606.64 328.45000000000005 607.66C328.45000000000005 608.68 327.62000000000006 609.52 326.59000000000003 609.52C325.55 609.52 324.67 608.67 324.67 607.66ZM306.17 607.66C306.17 606.65 307.05 605.8 308.09000000000003 605.8C309.12 605.8 309.95000000000005 606.64 309.95000000000005 607.66C309.95000000000005 608.68 309.12000000000006 609.52 308.09000000000003 609.52C307.05 609.52 306.17 608.67 306.17 607.66ZM303.04 605.23C303.45000000000005 605.23 303.8 605.57 303.8 605.97C303.8 606.38 303.45 606.72 303.04 606.72L300.76000000000005 606.72C300.34000000000003 606.72 300.00000000000006 606.38 300.00000000000006 605.97L300.00000000000006 603.26C300.00000000000006 602.85 300.34000000000003 602.52 300.76000000000005 602.52C301.1700000000001 602.52 301.52000000000004 602.85 301.52000000000004 603.26L301.52000000000004 605.23Z " fill-opacity="0" fill="#ffffff" stroke-dasharray="0" stroke-linejoin="miter" stroke-linecap="butt" stroke-opacity="1" stroke="#365e8d" stroke-miterlimit="50" stroke-width="0.5" transform="matrix(1,0,0,1,-292,-585.875)"></path><path id="SvgjsPath1107" d="M332.66 594.03L332.66 594.03L327.3 589.61C327.17 589.49 327.01 589.4300000000001 326.83 589.4300000000001L320.53 589.4300000000001L320.53 586.7500000000001C320.53 586.3400000000001 320.2 586.0000000000001 319.78999999999996 586.0000000000001L300.74999999999994 586.0000000000001C300.3399999999999 586.0000000000001 299.99999999999994 586.3400000000001 299.99999999999994 586.7500000000001L299.99999999999994 592.2100000000002C299.99999999999994 592.6200000000001 300.3399999999999 592.9600000000002 300.74999999999994 592.9600000000002C301.15999999999997 592.9600000000002 301.48999999999995 592.6200000000001 301.48999999999995 592.2100000000002L301.48999999999995 587.4900000000001L319.04999999999995 587.4900000000001L319.04999999999995 605.2000000000002L312.91999999999996 605.2000000000002C312.50999999999993 605.2000000000002 312.16999999999996 605.5300000000002 312.16999999999996 605.9400000000002C312.16999999999996 606.3600000000001 312.50999999999993 606.6900000000002 312.91999999999996 606.6900000000002L322.03999999999996 606.6900000000002C322.45 606.6900000000002 322.78999999999996 606.3600000000001 322.78999999999996 605.9400000000002C322.78999999999996 605.5300000000002 322.45 605.2000000000002 322.03999999999996 605.2000000000002L320.53999999999996 605.2000000000002L320.53999999999996 590.9300000000002L326.55999999999995 590.9300000000002L331.43999999999994 594.9600000000002L331.38999999999993 605.1800000000002L330.60999999999996 605.1800000000002C330.19999999999993 605.1800000000002 329.85999999999996 605.5200000000002 329.85999999999996 605.9300000000002C329.85999999999996 606.3400000000001 330.19999999999993 606.6800000000002 330.60999999999996 606.6800000000002L332.12999999999994 606.6800000000002C332.53999999999996 606.6800000000002 332.86999999999995 606.3500000000001 332.86999999999995 605.9400000000002L332.92999999999995 594.6200000000001C332.92999999999995 594.3900000000001 332.8299999999999 594.1800000000001 332.65999999999997 594.0300000000001Z " fill="#365e8d" fill-opacity="1" transform="matrix(1,0,0,1,-292,-585.875)"></path><path id="SvgjsPath1108" d="M332.66 594.03L332.66 594.03L327.3 589.61C327.17 589.49 327.01 589.4300000000001 326.83 589.4300000000001L320.53 589.4300000000001L320.53 586.7500000000001C320.53 586.3400000000001 320.2 586.0000000000001 319.78999999999996 586.0000000000001L300.74999999999994 586.0000000000001C300.3399999999999 586.0000000000001 299.99999999999994 586.3400000000001 299.99999999999994 586.7500000000001L299.99999999999994 592.2100000000002C299.99999999999994 592.6200000000001 300.3399999999999 592.9600000000002 300.74999999999994 592.9600000000002C301.15999999999997 592.9600000000002 301.48999999999995 592.6200000000001 301.48999999999995 592.2100000000002L301.48999999999995 587.4900000000001L319.04999999999995 587.4900000000001L319.04999999999995 605.2000000000002L312.91999999999996 605.2000000000002C312.50999999999993 605.2000000000002 312.16999999999996 605.5300000000002 312.16999999999996 605.9400000000002C312.16999999999996 606.3600000000001 312.50999999999993 606.6900000000002 312.91999999999996 606.6900000000002L322.03999999999996 606.6900000000002C322.45 606.6900000000002 322.78999999999996 606.3600000000001 322.78999999999996 605.9400000000002C322.78999999999996 605.5300000000002 322.45 605.2000000000002 322.03999999999996 605.2000000000002L320.53999999999996 605.2000000000002L320.53999999999996 590.9300000000002L326.55999999999995 590.9300000000002L331.43999999999994 594.9600000000002L331.38999999999993 605.1800000000002L330.60999999999996 605.1800000000002C330.19999999999993 605.1800000000002 329.85999999999996 605.5200000000002 329.85999999999996 605.9300000000002C329.85999999999996 606.3400000000001 330.19999999999993 606.6800000000002 330.60999999999996 606.6800000000002L332.12999999999994 606.6800000000002C332.53999999999996 606.6800000000002 332.86999999999995 606.3500000000001 332.86999999999995 605.9400000000002L332.92999999999995 594.6200000000001C332.92999999999995 594.3900000000001 332.8299999999999 594.1800000000001 332.65999999999997 594.0300000000001Z " fill-opacity="0" fill="#ffffff" stroke-dasharray="0" stroke-linejoin="miter" stroke-linecap="butt" stroke-opacity="1" stroke="#365e8d" stroke-miterlimit="50" stroke-width="0.5" transform="matrix(1,0,0,1,-292,-585.875)"></path><path id="SvgjsPath1109" d="M296.78 597L306.21999999999997 597C306.65 597 306.99999999999994 596.55 306.99999999999994 596C306.99999999999994 595.45 306.6499999999999 595 306.21999999999997 595L296.78 595C296.34999999999997 595 296 595.45 296 596C296 596.55 296.35 597 296.78 597Z " fill="#6faaff" fill-opacity="1" transform="matrix(1,0,0,1,-292,-585.875)"></path><path id="SvgjsPath1110" d="M293.77 600.93L303.21 601C303.64 601 303.98999999999995 600.57 304 600.04C304.01 599.5 303.66 599.0699999999999 303.23 599.0699999999999L293.79 598.9999999999999C293.78000000000003 598.9999999999999 293.78000000000003 598.9999999999999 293.78000000000003 598.9999999999999C293.35 598.9999999999999 293.00000000000006 599.4299999999998 293.00000000000006 599.9599999999999C292.99000000000007 600.4999999999999 293.34000000000003 600.93 293.77000000000004 600.93Z " fill="#6faaff" fill-opacity="1" transform="matrix(1,0,0,1,-292,-585.875)"></path></svg>