<svg id="SvgjsSvg1013" xmlns="http://www.w3.org/2000/svg" version="1.1" xmlns:xlink="http://www.w3.org/1999/xlink" xmlns:svgjs="http://svgjs.com/svgjs" width="32" height="33" viewBox="0 0 32 33"><title>Rectangle 30</title><desc>Created with Avocode.</desc><defs id="SvgjsDefs1014"><clipPath id="SvgjsClipPath1017"><path id="SvgjsPath1016" d="M299.75293 251.42676C300.26493999999997 248.42964 303.14484 246 306.18538 246L319.81463 246C322.85517000000004 246 325.73507 248.42964 326.24708000000004 251.42676L328.49294000000003 264.57324C329.00495 267.57036 326.95517 270 323.91463000000005 270L302.08538000000004 270C299.04484 270 296.99507000000006 267.57036 297.50707000000006 264.57324Z " fill="#ffffff"></path></clipPath></defs><path id="SvgjsPath1015" d="M299.75293 251.42676C300.26493999999997 248.42964 303.14484 246 306.18538 246L319.81463 246C322.85517000000004 246 325.73507 248.42964 326.24708000000004 251.42676L328.49294000000003 264.57324C329.00495 267.57036 326.95517 270 323.91463000000005 270L302.08538000000004 270C299.04484 270 296.99507000000006 267.57036 297.50707000000006 264.57324Z " fill-opacity="0" fill="#ffffff" stroke-dasharray="0" stroke-linejoin="miter" stroke-linecap="butt" stroke-opacity="1" stroke="#365e8d" stroke-miterlimit="50" stroke-width="4.129032258064516" clip-path="url(&quot;#SvgjsClipPath1017&quot;)" transform="matrix(1,0,0,1,-297,-237)"></path><path id="SvgjsPath1018" d="M318.99 254C318.99 249.78 319.54 238 312.98 238C306.42 238 307.01 249.78 307.01 254 " fill-opacity="0" fill="#ffffff" stroke-dasharray="0" stroke-linejoin="round" stroke-linecap="round" stroke-opacity="1" stroke="#6faaff" stroke-miterlimit="50" stroke-width="2" transform="matrix(1,0,0,1,-297,-237)"></path></svg>